<svg xmlns="http://www.w3.org/2000/svg" xmlns:xlink="http://www.w3.org/1999/xlink" contentStyleType="text/css" data-diagram-type="CLASS" height="334px" preserveAspectRatio="xMidYMid meet" style="" version="1.1" viewBox="0 0 394 334" width="394px" zoomAndPan="magnify"><defs><style type="text/css"></style></defs><g><!--class JobScheduler--><g class="entity" data-entity="JobScheduler" data-source-line="19" data-uid="ent0002" id="entity_JobScheduler"><rect fill="#FFFFFF" height="234.1294" rx="4" ry="4" style="stroke:#BDC1C6;stroke-width:1;" width="380.6465" x="7" y="7"/><ellipse cx="154.107" cy="22" fill="#E8F0FE" rx="10" ry="10" style="stroke:#181818;stroke-width:1;"/><path d="M155.9351,26.25 Q155.5289,26.4531 155.0757,26.5625 Q154.6226,26.6719 154.1382,26.6719 Q152.357,26.6719 151.4195,25.5156 Q150.4976,24.3438 150.4976,22.1406 Q150.4976,19.9219 151.4195,18.7656 Q152.357,17.5938 154.1382,17.5938 Q154.6226,17.5938 155.0757,17.7031 Q155.5445,17.7969 155.9351,18.0156 L155.9351,19.9375 Q155.4976,19.5313 155.0757,19.3438 Q154.6539,19.1406 154.2164,19.1406 Q153.2632,19.1406 152.7789,19.9063 Q152.2945,20.6563 152.2945,22.1406 Q152.2945,23.6094 152.7789,24.3594 Q153.2632,25.1094 154.2164,25.1094 Q154.6539,25.1094 155.0757,24.9219 Q155.4976,24.7344 155.9351,24.3281 L155.9351,26.25 Z " fill="#000000"/><text fill="#000000" font-family="Roboto" font-size="12" font-weight="bold" lengthAdjust="spacing" textLength="78.4326" x="173.107" y="26.656">JobScheduler</text><line style="stroke:#BDC1C6;stroke-width:1;" x1="8" x2="386.6465" y1="37" y2="37"/><ellipse cx="18" cy="50.6721" fill="#84BE84" rx="3" ry="3" style="stroke:#038048;stroke-width:1;"/><text fill="#000000" font-family="Roboto" font-size="12" lengthAdjust="spacing" textLength="207.0615" x="26" y="53.8281">forNamespace(String) : JobScheduler</text><ellipse cx="18" cy="67.0162" fill="#84BE84" rx="3" ry="3" style="stroke:#038048;stroke-width:1;"/><text fill="#000000" font-family="Roboto" font-size="12" lengthAdjust="spacing" textLength="135.1329" x="26" y="70.1722">getNamespace() : String</text><ellipse cx="18" cy="83.3603" fill="#84BE84" rx="3" ry="3" style="stroke:#038048;stroke-width:1;"/><text fill="#000000" font-family="Roboto" font-size="12" lengthAdjust="spacing" textLength="122.6409" x="26" y="86.5163">schedule(JobInfo) : int</text><ellipse cx="18" cy="99.7044" fill="#84BE84" rx="3" ry="3" style="stroke:#038048;stroke-width:1;"/><text fill="#000000" font-family="Roboto" font-size="12" lengthAdjust="spacing" textLength="202.6454" x="26" y="102.8604">enqueue(JobInfo, JobWorkItem) : int</text><ellipse cx="18" cy="116.0485" fill="#84BE84" rx="3" ry="3" style="stroke:#038048;stroke-width:1;"/><text fill="#000000" font-family="Roboto" font-size="12" lengthAdjust="spacing" textLength="57.5764" x="26" y="119.2045">cancel(int)</text><ellipse cx="18" cy="132.3926" fill="#84BE84" rx="3" ry="3" style="stroke:#038048;stroke-width:1;"/><text fill="#000000" font-family="Roboto" font-size="12" lengthAdjust="spacing" textLength="56.5924" x="26" y="135.5487">cancelAll()</text><ellipse cx="18" cy="148.7367" fill="#84BE84" rx="3" ry="3" style="stroke:#038048;stroke-width:1;"/><text fill="#000000" font-family="Roboto" font-size="12" lengthAdjust="spacing" textLength="140.053" x="26" y="151.8928">cancelInAllNamespaces()</text><ellipse cx="18" cy="165.0809" fill="#84BE84" rx="3" ry="3" style="stroke:#038048;stroke-width:1;"/><text fill="#000000" font-family="Roboto" font-size="12" lengthAdjust="spacing" textLength="193.3574" x="26" y="168.2369">getAllPendingJobs() : List&lt;JobInfo&gt;</text><ellipse cx="18" cy="181.425" fill="#84BE84" rx="3" ry="3" style="stroke:#038048;stroke-width:1;"/><text fill="#000000" font-family="Roboto" font-size="12" lengthAdjust="spacing" textLength="355.6465" x="26" y="184.581">getPendingJobsInAllNamespaces() : Map&lt;String, List&lt;JobInfo&gt;&gt;</text><ellipse cx="18" cy="197.7691" fill="#84BE84" rx="3" ry="3" style="stroke:#038048;stroke-width:1;"/><text fill="#000000" font-family="Roboto" font-size="12" lengthAdjust="spacing" textLength="155.4011" x="26" y="200.9251">getPendingJob(int) : JobInfo</text><ellipse cx="18" cy="214.1132" fill="#84BE84" rx="3" ry="3" style="stroke:#038048;stroke-width:1;"/><text fill="#000000" font-family="Roboto" font-size="12" lengthAdjust="spacing" textLength="170.8452" x="26" y="217.2692">getPendingJobReason(int) : int</text><ellipse cx="18" cy="230.4573" fill="#84BE84" rx="3" ry="3" style="stroke:#038048;stroke-width:1;"/><text fill="#000000" font-family="Roboto" font-size="12" lengthAdjust="spacing" textLength="184.4893" x="26" y="233.6133">getPendingJobReasons(int) : int[]</text></g><g class="entity" data-entity="GMN3" data-source-line="34" data-uid="ent0004" id="entity_GMN3"><path d="M121.5,305 L121.5,323.3441 A4,4 0 0 0 125.5,327.3441 L269.1929,327.3441 A4,4 0 0 0 273.1929,323.3441 L273.1929,311 L263.1929,301 L201.5,301 L197.5,241.12 L193.5,301 L125.5,301 A4,4 0 0 0 121.5,305" fill="#FEF7E0" style="stroke:#FBBC04;stroke-width:0.5;"/><path d="M263.1929,301 L263.1929,309 A2,2 0 0 0 265.1929,311 L273.1929,311 L263.1929,301" fill="#FEF7E0" style="stroke:#FBBC04;stroke-width:0.5;"/><text fill="#000000" font-family="Roboto" font-size="12" lengthAdjust="spacing" textLength="130.6929" x="127.5" y="318.8281">&#8230; and 2 more methods</text></g><!--SRC=[XPF1Qjj048RlUeg1NXoQWvsqhYaXOAiMkBIbn8KUIWyhxSWINksukoE2MmfzcZnOdYIxacfl945qM_tV_9f_PsJtfJu88of8HRRV6QgrZ4cH0JP2MoUXviYUA5i8IVUbta4kbCL0aPYBMd52ch-82k6EKc8Q1xRbRuJPLI1cIbXxbgv79JugX9IKxAjBPbEcDUEuUPVAQ3ImwDUkUhbV9SqpmCX8D1so-X3Fulauygqeixr6Qs4M04jZwBwhVflCh-UBlkXRVn5eiuN6cXY74TR9k_MqJuK9ajKgdhu91yjeaFXum7XWjruaqsGT5QL4mEh0HwYmIj7OgCaD7odTPWNAMhaB_XC1lCx9-2Lm-vFXPEk6etSNyFuPwB4TyXdpG8jwoNRSnDLiT4vUBTqgEWdrhnhhatBfRR-JsMyOgm3BXCvGJTpfudnSAZK9ZXljNfnQiAtakd9llwAMhXVdRPlMFfMMRxfFtdPOm0oSNCbdSRXf4rq-Bn_MDsssD-I9WNw7mfB-JtK9HmWR83z-HdyZFtdtpp1J1PJt9_3uxm64bd055HbqO-M2f8sSQRCoJm00]--></g></svg>