<svg xmlns="http://www.w3.org/2000/svg" xmlns:xlink="http://www.w3.org/1999/xlink" contentStyleType="text/css" data-diagram-type="CLASS" height="269px" preserveAspectRatio="xMidYMid meet" style="" version="1.1" viewBox="0 0 804 269" width="804px" zoomAndPan="magnify"><defs><style type="text/css"></style></defs><g><!--class IStatusBar--><g class="entity" data-entity="IStatusBar" data-source-line="19" data-uid="ent0002" id="entity_IStatusBar"><rect fill="#FFFFFF" height="168.7529" rx="4" ry="4" style="stroke:#BDC1C6;stroke-width:1;" width="262.4097" x="7" y="7"/><ellipse cx="103.9706" cy="22" fill="#B4A7E5" rx="10" ry="10" style="stroke:#181818;stroke-width:1;"/><path d="M100.9863,19.2813 L100.9863,17.75 L106.1894,17.75 L106.1894,19.2813 L104.455,19.2813 L104.455,24.9688 L106.1894,24.9688 L106.1894,26.5 L100.9863,26.5 L100.9863,24.9688 L102.7206,24.9688 L102.7206,19.2813 L100.9863,19.2813 Z " fill="#000000"/><text fill="#000000" font-family="Roboto" font-size="12" font-style="italic" font-weight="bold" lengthAdjust="spacing" textLength="60.4684" x="122.9706" y="26.656">IStatusBar</text><line style="stroke:#BDC1C6;stroke-width:1;" x1="8" x2="268.4097" y1="37" y2="37"/><ellipse cx="18" cy="50.6721" fill="#84BE84" rx="3" ry="3" style="stroke:#038048;stroke-width:1;"/><text fill="#000000" font-family="Roboto" font-size="12" lengthAdjust="spacing" textLength="236.4496" x="26" y="53.8281">setImeWindowStatus(int, int, int, boolean)</text><ellipse cx="18" cy="67.0162" fill="#84BE84" rx="3" ry="3" style="stroke:#038048;stroke-width:1;"/><text fill="#000000" font-family="Roboto" font-size="12" lengthAdjust="spacing" textLength="153.3851" x="26" y="70.1722">confirmImmersivePrompt()</text><ellipse cx="18" cy="83.3603" fill="#84BE84" rx="3" ry="3" style="stroke:#038048;stroke-width:1;"/><text fill="#000000" font-family="Roboto" font-size="12" lengthAdjust="spacing" textLength="237.4097" x="26" y="86.5163">immersiveModeChanged(int, boolean, int)</text><ellipse cx="18" cy="99.7044" fill="#84BE84" rx="3" ry="3" style="stroke:#038048;stroke-width:1;"/><text fill="#000000" font-family="Roboto" font-size="12" lengthAdjust="spacing" textLength="146.977" x="26" y="102.8604">appTransitionPending(int)</text><ellipse cx="18" cy="116.0485" fill="#84BE84" rx="3" ry="3" style="stroke:#038048;stroke-width:1;"/><text fill="#000000" font-family="Roboto" font-size="12" lengthAdjust="spacing" textLength="154.8611" x="26" y="119.2045">appTransitionCancelled(int)</text><ellipse cx="18" cy="132.3926" fill="#84BE84" rx="3" ry="3" style="stroke:#038048;stroke-width:1;"/><text fill="#000000" font-family="Roboto" font-size="12" lengthAdjust="spacing" textLength="208.0694" x="26" y="135.5487">appTransitionStarting(int, long, long)</text><ellipse cx="18" cy="148.7367" fill="#84BE84" rx="3" ry="3" style="stroke:#038048;stroke-width:1;"/><text fill="#000000" font-family="Roboto" font-size="12" lengthAdjust="spacing" textLength="147.409" x="26" y="151.8928">appTransitionFinished(int)</text><ellipse cx="18" cy="165.0809" fill="#84BE84" rx="3" ry="3" style="stroke:#038048;stroke-width:1;"/><text fill="#000000" font-family="Roboto" font-size="12" lengthAdjust="spacing" textLength="217.3335" x="26" y="168.2369">onCameraLaunchGestureDetected(int)</text></g><g class="entity" data-entity="GMN3" data-source-line="30" data-uid="ent0004" id="entity_GMN3"><path d="M58.5,240 L58.5,258.3441 A4,4 0 0 0 62.5,262.3441 L213.057,262.3441 A4,4 0 0 0 217.057,258.3441 L217.057,246 L207.057,236 L142,236 L138,176.17 L134,236 L62.5,236 A4,4 0 0 0 58.5,240" fill="#FEF7E0" style="stroke:#FBBC04;stroke-width:0.5;"/><path d="M207.057,236 L207.057,244 A2,2 0 0 0 209.057,246 L217.057,246 L207.057,236" fill="#FEF7E0" style="stroke:#FBBC04;stroke-width:0.5;"/><text fill="#000000" font-family="Roboto" font-size="12" lengthAdjust="spacing" textLength="137.557" x="64.5" y="253.8281">&#8230; and 74 more methods</text></g><!--class IStatusBarService--><g class="entity" data-entity="IStatusBarService" data-source-line="32" data-uid="ent0006" id="entity_IStatusBarService"><rect fill="#FFFFFF" height="168.7529" rx="4" ry="4" style="stroke:#BDC1C6;stroke-width:1;" width="492.7873" x="304.5" y="7"/><ellipse cx="496.5173" cy="22" fill="#B4A7E5" rx="10" ry="10" style="stroke:#181818;stroke-width:1;"/><path d="M493.5329,19.2813 L493.5329,17.75 L498.7361,17.75 L498.7361,19.2813 L497.0017,19.2813 L497.0017,24.9688 L498.7361,24.9688 L498.7361,26.5 L493.5329,26.5 L493.5329,24.9688 L495.2673,24.9688 L495.2673,19.2813 L493.5329,19.2813 Z " fill="#000000"/><text fill="#000000" font-family="Roboto" font-size="12" font-style="italic" font-weight="bold" lengthAdjust="spacing" textLength="100.7527" x="515.5173" y="26.656">IStatusBarService</text><line style="stroke:#BDC1C6;stroke-width:1;" x1="305.5" x2="796.2873" y1="37" y2="37"/><ellipse cx="315.5" cy="50.6721" fill="#84BE84" rx="3" ry="3" style="stroke:#038048;stroke-width:1;"/><text fill="#000000" font-family="Roboto" font-size="12" lengthAdjust="spacing" textLength="236.4496" x="323.5" y="53.8281">setImeWindowStatus(int, int, int, boolean)</text><ellipse cx="315.5" cy="67.0162" fill="#84BE84" rx="3" ry="3" style="stroke:#038048;stroke-width:1;"/><text fill="#000000" font-family="Roboto" font-size="12" lengthAdjust="spacing" textLength="467.7873" x="323.5" y="70.1722">registerStatusBarForAllDisplays(IStatusBar) : Map&lt;String, RegisterStatusBarResult&gt;</text><ellipse cx="315.5" cy="83.3603" fill="#84BE84" rx="3" ry="3" style="stroke:#038048;stroke-width:1;"/><text fill="#000000" font-family="Roboto" font-size="12" lengthAdjust="spacing" textLength="63.6004" x="323.5" y="86.5163">shutdown()</text><ellipse cx="315.5" cy="99.7044" fill="#84BE84" rx="3" ry="3" style="stroke:#038048;stroke-width:1;"/><text fill="#000000" font-family="Roboto" font-size="12" lengthAdjust="spacing" textLength="45.0243" x="323.5" y="102.8604">restart()</text><ellipse cx="315.5" cy="116.0485" fill="#84BE84" rx="3" ry="3" style="stroke:#038048;stroke-width:1;"/><text fill="#000000" font-family="Roboto" font-size="12" lengthAdjust="spacing" textLength="207.3854" x="323.5" y="119.2045">showPinningEnterExitToast(boolean)</text><ellipse cx="315.5" cy="132.3926" fill="#84BE84" rx="3" ry="3" style="stroke:#038048;stroke-width:1;"/><text fill="#000000" font-family="Roboto" font-size="12" lengthAdjust="spacing" textLength="371.4747" x="323.5" y="135.5487">setUdfpsRefreshRateCallback(IUdfpsRefreshRateRequestCallback)</text><ellipse cx="315.5" cy="148.7367" fill="#84BE84" rx="3" ry="3" style="stroke:#038048;stroke-width:1;"/><text fill="#000000" font-family="Roboto" font-size="12" lengthAdjust="spacing" textLength="177.1692" x="323.5" y="151.8928">showInattentiveSleepWarning()</text><ellipse cx="315.5" cy="165.0809" fill="#84BE84" rx="3" ry="3" style="stroke:#038048;stroke-width:1;"/><text fill="#000000" font-family="Roboto" font-size="12" lengthAdjust="spacing" textLength="235.2616" x="323.5" y="168.2369">dismissInattentiveSleepWarning(boolean)</text></g><g class="entity" data-entity="GMN7" data-source-line="43" data-uid="ent0008" id="entity_GMN7"><path d="M471.5,240 L471.5,258.3441 A4,4 0 0 0 475.5,262.3441 L626.057,262.3441 A4,4 0 0 0 630.057,258.3441 L630.057,246 L620.057,236 L555,236 L551,176.17 L547,236 L475.5,236 A4,4 0 0 0 471.5,240" fill="#FEF7E0" style="stroke:#FBBC04;stroke-width:0.5;"/><path d="M620.057,236 L620.057,244 A2,2 0 0 0 622.057,246 L630.057,246 L620.057,236" fill="#FEF7E0" style="stroke:#FBBC04;stroke-width:0.5;"/><text fill="#000000" font-family="Roboto" font-size="12" lengthAdjust="spacing" textLength="137.557" x="477.5" y="253.8281">&#8230; and 60 more methods</text></g><!--SRC=[dLJ1ZjCm4BttAonnoOezjEpIhH12scORL8b5LLkqvsayQQmwCy6UR2a8YQ_Xm_WIdBRRZT804ZbOYj-RDpDlRFkDeH8S56e5wMRjk28TisMdn07v0259pvzOFWVDMqDhbO7rs40qPb1PIPZa8nIevhnYuMx2mdn5DNZL05CBtZz3LvsGx2og5LlTHcz5d5bLWjtYnwuSeLEZTkourVUBPF-TqTXfT4VA-2uUnCDkoZ8twORGUpLe46wTu-qn-dKol1gEsc1T-Zy9XzwQmiI2vorCafj9lyrgTf2Cnt7_kZbOGOSiknBZCxd9AEadarvkD2eiIjcf0eiLEjyp5C8oI55D5m9I1JUT-jPJwgL7cHRuO2WSbmCK1VAbUbvMp1Q1BcfsofGPLqoB8gYQHvmv3dcYFMQUDkzPOvm3hL57JOMztfuAPRciZwqHmpH3qk6WHfrW39IYjGUbSpXKxEGOVAaiq_gmdZCJGyRd3PrQEnGC7w2YD7-FNYg7ToYOoXFhUw-UHoXVX0l5MSEyeF3hnqy5fDNDjIhOOV1QSjQ-5zhPpx7Jz0MwHnDs_iDxXsjJJ_-abR2xjVRE-DB2paVFIIxK6tKFvTj5k6sr8_Dsv1nzkE7lzZNabOJq51rp-DhHmu_FUJipH45ZKhSo-M9aoU0bQfOLclYaizBFCGlH-Hm4Ox2sVgQYQHkPu-Sgf7WYdD9C2KJ22nPEpy8YbW_WwhI7EhJnXV7-JvnJCNyPrz7snjI6_Uwf_GO0]--></g></svg>