<svg xmlns="http://www.w3.org/2000/svg" xmlns:xlink="http://www.w3.org/1999/xlink" contentStyleType="text/css" data-diagram-type="CLASS" height="334px" preserveAspectRatio="xMidYMid meet" style="" version="1.1" viewBox="0 0 402 334" width="402px" zoomAndPan="magnify"><defs><style type="text/css"></style></defs><g><!--class WifiManager--><g class="entity" data-entity="WifiManager" data-source-line="19" data-uid="ent0002" id="entity_WifiManager"><rect fill="#FFFFFF" height="234.1294" rx="4" ry="4" style="stroke:#BDC1C6;stroke-width:1;" width="388.5787" x="7" y="7"/><ellipse cx="158.5891" cy="22" fill="#E8F0FE" rx="10" ry="10" style="stroke:#181818;stroke-width:1;"/><path d="M160.4172,26.25 Q160.011,26.4531 159.5578,26.5625 Q159.1047,26.6719 158.6203,26.6719 Q156.8391,26.6719 155.9016,25.5156 Q154.9797,24.3438 154.9797,22.1406 Q154.9797,19.9219 155.9016,18.7656 Q156.8391,17.5938 158.6203,17.5938 Q159.1047,17.5938 159.5578,17.7031 Q160.0266,17.7969 160.4172,18.0156 L160.4172,19.9375 Q159.9797,19.5313 159.5578,19.3438 Q159.136,19.1406 158.6985,19.1406 Q157.7453,19.1406 157.261,19.9063 Q156.7766,20.6563 156.7766,22.1406 Q156.7766,23.6094 157.261,24.3594 Q157.7453,25.1094 158.6985,25.1094 Q159.136,25.1094 159.5578,24.9219 Q159.9797,24.7344 160.4172,24.3281 L160.4172,26.25 Z " fill="#000000"/><text fill="#000000" font-family="Roboto" font-size="12" font-weight="bold" lengthAdjust="spacing" textLength="77.4005" x="177.5891" y="26.656">WifiManager</text><line style="stroke:#BDC1C6;stroke-width:1;" x1="8" x2="394.5787" y1="37" y2="37"/><ellipse cx="18" cy="50.6721" fill="#84BE84" rx="3" ry="3" style="stroke:#038048;stroke-width:1;"/><text fill="#000000" font-family="Roboto" font-size="12" lengthAdjust="spacing" textLength="317.5223" x="26" y="53.8281">getCallerConfiguredNetworks() : List&lt;WifiConfiguration&gt;</text><ellipse cx="18" cy="67.0162" fill="#84BE84" rx="3" ry="3" style="stroke:#038048;stroke-width:1;"/><text fill="#000000" font-family="Roboto" font-size="12" lengthAdjust="spacing" textLength="347.4026" x="26" y="70.1722">addNetworkPrivileged(WifiConfiguration) : AddNetworkResult</text><ellipse cx="18" cy="83.3603" fill="#84BE84" rx="3" ry="3" style="stroke:#038048;stroke-width:1;"/><text fill="#000000" font-family="Roboto" font-size="12" lengthAdjust="spacing" textLength="336.7345" x="26" y="86.5163">addNetworkSuggestions(List&lt;WifiNetworkSuggestion&gt;) : int</text><ellipse cx="18" cy="99.7044" fill="#84BE84" rx="3" ry="3" style="stroke:#038048;stroke-width:1;"/><text fill="#000000" font-family="Roboto" font-size="12" lengthAdjust="spacing" textLength="358.3107" x="26" y="102.8604">removeNetworkSuggestions(List&lt;WifiNetworkSuggestion&gt;) : int</text><ellipse cx="18" cy="116.0485" fill="#84BE84" rx="3" ry="3" style="stroke:#038048;stroke-width:1;"/><text fill="#000000" font-family="Roboto" font-size="12" lengthAdjust="spacing" textLength="318.8784" x="26" y="119.2045">getNetworkSuggestions() : List&lt;WifiNetworkSuggestion&gt;</text><ellipse cx="18" cy="132.3926" fill="#84BE84" rx="3" ry="3" style="stroke:#038048;stroke-width:1;"/><text fill="#000000" font-family="Roboto" font-size="12" lengthAdjust="spacing" textLength="293.1262" x="26" y="135.5487">getMaxNumberOfNetworkSuggestionsPerApp() : int</text><ellipse cx="18" cy="148.7367" fill="#84BE84" rx="3" ry="3" style="stroke:#038048;stroke-width:1;"/><text fill="#000000" font-family="Roboto" font-size="12" lengthAdjust="spacing" textLength="350.4745" x="26" y="151.8928">addOrUpdatePasspointConfiguration(PasspointConfiguration)</text><ellipse cx="18" cy="165.0809" fill="#84BE84" rx="3" ry="3" style="stroke:#038048;stroke-width:1;"/><text fill="#000000" font-family="Roboto" font-size="12" lengthAdjust="spacing" textLength="279.0741" x="26" y="168.2369">removeNonCallerConfiguredNetworks() : boolean</text><ellipse cx="18" cy="181.425" fill="#84BE84" rx="3" ry="3" style="stroke:#038048;stroke-width:1;"/><text fill="#000000" font-family="Roboto" font-size="12" lengthAdjust="spacing" textLength="234.9857" x="26" y="184.581">isStaApConcurrencySupported() : boolean</text><ellipse cx="18" cy="197.7691" fill="#84BE84" rx="3" ry="3" style="stroke:#038048;stroke-width:1;"/><text fill="#000000" font-family="Roboto" font-size="12" lengthAdjust="spacing" textLength="363.5787" x="26" y="200.9251">isStaConcurrencyForLocalOnlyConnectionsSupported() : boolean</text><ellipse cx="18" cy="214.1132" fill="#84BE84" rx="3" ry="3" style="stroke:#038048;stroke-width:1;"/><text fill="#000000" font-family="Roboto" font-size="12" lengthAdjust="spacing" textLength="308.0063" x="26" y="217.2692">isMakeBeforeBreakWifiSwitchingSupported() : boolean</text><ellipse cx="18" cy="230.4573" fill="#84BE84" rx="3" ry="3" style="stroke:#038048;stroke-width:1;"/><text fill="#000000" font-family="Roboto" font-size="12" lengthAdjust="spacing" textLength="313.2622" x="26" y="233.6133">isStaConcurrencyForMultiInternetSupported() : boolean</text></g><g class="entity" data-entity="GMN3" data-source-line="34" data-uid="ent0004" id="entity_GMN3"><path d="M122,305 L122,323.3441 A4,4 0 0 0 126,327.3441 L276.557,327.3441 A4,4 0 0 0 280.557,323.3441 L280.557,311 L270.557,301 L205.5,301 L201.5,241.12 L197.5,301 L126,301 A4,4 0 0 0 122,305" fill="#FEF7E0" style="stroke:#FBBC04;stroke-width:0.5;"/><path d="M270.557,301 L270.557,309 A2,2 0 0 0 272.557,311 L280.557,311 L270.557,301" fill="#FEF7E0" style="stroke:#FBBC04;stroke-width:0.5;"/><text fill="#000000" font-family="Roboto" font-size="12" lengthAdjust="spacing" textLength="137.557" x="128" y="318.8281">&#8230; and 83 more methods</text></g><!--SRC=[dPJTZjCm48NlynIMkEcAcos5KY6qKXCQ2Mdxeos8QoUUf5OSJpIUR2a8YQVXmNWIxD8jsIPQ1BcBptV6FkD9NALj8qdM8fDvLHAsLYLea0IJjCvBO3boPyhjfCAzjgKef77GKHGKiZMSekMLh47SOOQCmy1MVm4nVj4HSoET-oDD1YK-610P6dMfpfb9Pot3SF5JAh90OdRfZIzoFqkFJmz3Ka0d97wNZ9FfCF9Xf_FAWdDYt07cHBW_kL-bqybqTYc6e_yL-9sjMzWYGp_28dszkBwakWdIE4wkNtOlbe40-T10qYktcANNwIBQQGK2weOFeeOw0tBHCRVuf0kzb5QMlhzV8o6Uby29D2RiPWjTjWHg1Rn7gjpeIhmHjzhns-1wq2Lhj3V1AjK3kY5zhmsKe4OzD1IPdyaxS7wm7hktRLc22wmRdRVhQJUXaBP7Bq6Dz_3VTfzvmFieRTz_CYxbvrKREhek-ZKsGFEc6NMsyYdNzB5Hac7Z-z-W3gFJQSzeUFcg4nFjapUK8HgGDXYqsxASDnxCM_A_W_omRPi6YVt53A4TC4MwnLoQjJK7lsmXFoPwmh-K5SHG845C8AlGjUrUSxxplvn_sNRf1qA_jtweBV2myLiKlWh_oeormA8xnhxgp-y_XBHAp2QYziVn8yyxL2u2lnQClm00]--></g></svg>