<svg xmlns="http://www.w3.org/2000/svg" xmlns:xlink="http://www.w3.org/1999/xlink" contentStyleType="text/css" data-diagram-type="CLASS" height="222px" preserveAspectRatio="xMidYMid meet" style="" version="1.1" viewBox="0 0 478 222" width="478px" zoomAndPan="magnify"><defs><style type="text/css"></style></defs><g><!--class NetworkStatsManager--><g class="entity" data-entity="NetworkStatsManager" data-source-line="19" data-uid="ent0002" id="entity_NetworkStatsManager"><rect fill="#FFFFFF" height="201.4411" rx="4" ry="4" style="stroke:#BDC1C6;stroke-width:1;" width="457.5312" x="7" y="7"/><ellipse cx="163.4071" cy="22" fill="#E8F0FE" rx="10" ry="10" style="stroke:#181818;stroke-width:1;"/><path d="M165.2352,26.25 Q164.829,26.4531 164.3759,26.5625 Q163.9227,26.6719 163.4384,26.6719 Q161.6571,26.6719 160.7196,25.5156 Q159.7977,24.3438 159.7977,22.1406 Q159.7977,19.9219 160.7196,18.7656 Q161.6571,17.5938 163.4384,17.5938 Q163.9227,17.5938 164.3759,17.7031 Q164.8446,17.7969 165.2352,18.0156 L165.2352,19.9375 Q164.7977,19.5313 164.3759,19.3438 Q163.954,19.1406 163.5165,19.1406 Q162.5634,19.1406 162.079,19.9063 Q161.5946,20.6563 161.5946,22.1406 Q161.5946,23.6094 162.079,24.3594 Q162.5634,25.1094 163.5165,25.1094 Q163.954,25.1094 164.3759,24.9219 Q164.7977,24.7344 165.2352,24.3281 L165.2352,26.25 Z " fill="#000000"/><text fill="#000000" font-family="Roboto" font-size="12" font-weight="bold" lengthAdjust="spacing" textLength="136.717" x="182.4071" y="26.656">NetworkStatsManager</text><line style="stroke:#BDC1C6;stroke-width:1;" x1="8" x2="463.5312" y1="37" y2="37"/><ellipse cx="18" cy="50.6721" fill="#84BE84" rx="3" ry="3" style="stroke:#038048;stroke-width:1;"/><text fill="#000000" font-family="Roboto" font-size="12" lengthAdjust="spacing" textLength="138.397" x="26" y="53.8281">setPollOnOpen(boolean)</text><ellipse cx="18" cy="67.0162" fill="#84BE84" rx="3" ry="3" style="stroke:#038048;stroke-width:1;"/><text fill="#000000" font-family="Roboto" font-size="12" lengthAdjust="spacing" textLength="315.6503" x="26" y="70.1722">querySummaryForDevice(int, String, long, long) : Bucket</text><ellipse cx="18" cy="83.3603" fill="#84BE84" rx="3" ry="3" style="stroke:#038048;stroke-width:1;"/><text fill="#000000" font-family="Roboto" font-size="12" lengthAdjust="spacing" textLength="304.6462" x="26" y="86.5163">querySummaryForUser(int, String, long, long) : Bucket</text><ellipse cx="18" cy="99.7044" fill="#84BE84" rx="3" ry="3" style="stroke:#038048;stroke-width:1;"/><text fill="#000000" font-family="Roboto" font-size="12" lengthAdjust="spacing" textLength="297.4821" x="26" y="102.8604">querySummary(int, String, long, long) : NetworkStats</text><ellipse cx="18" cy="116.0485" fill="#84BE84" rx="3" ry="3" style="stroke:#038048;stroke-width:1;"/><text fill="#000000" font-family="Roboto" font-size="12" lengthAdjust="spacing" textLength="340.6345" x="26" y="119.2045">queryDetailsForUid(int, String, long, long, int) : NetworkStats</text><ellipse cx="18" cy="132.3926" fill="#84BE84" rx="3" ry="3" style="stroke:#038048;stroke-width:1;"/><text fill="#000000" font-family="Roboto" font-size="12" lengthAdjust="spacing" textLength="382.5988" x="26" y="135.5487">queryDetailsForUidTag(int, String, long, long, int, int) : NetworkStats</text><ellipse cx="18" cy="148.7367" fill="#84BE84" rx="3" ry="3" style="stroke:#038048;stroke-width:1;"/><text fill="#000000" font-family="Roboto" font-size="12" lengthAdjust="spacing" textLength="432.5312" x="26" y="151.8928">queryDetailsForUidTagState(int, String, long, long, int, int, int) : NetworkStats</text><ellipse cx="18" cy="165.0809" fill="#84BE84" rx="3" ry="3" style="stroke:#038048;stroke-width:1;"/><text fill="#000000" font-family="Roboto" font-size="12" lengthAdjust="spacing" textLength="281.762" x="26" y="168.2369">queryDetails(int, String, long, long) : NetworkStats</text><ellipse cx="18" cy="181.425" fill="#84BE84" rx="3" ry="3" style="stroke:#038048;stroke-width:1;"/><text fill="#000000" font-family="Roboto" font-size="12" lengthAdjust="spacing" textLength="308.3542" x="26" y="184.581">registerUsageCallback(int, String, long, UsageCallback)</text><ellipse cx="18" cy="197.7691" fill="#84BE84" rx="3" ry="3" style="stroke:#038048;stroke-width:1;"/><text fill="#000000" font-family="Roboto" font-size="12" lengthAdjust="spacing" textLength="230.4136" x="26" y="200.9251">unregisterUsageCallback(UsageCallback)</text></g><!--SRC=[bPH1J-Cm48Nl_HKZSG5j3otibeeRIPlRmeh23vWaqzIAuodZ2LLOyTz9Ic6pQO0s1r- -zrxyF9PzRjmQ1Gk8CSapuTAb8LiMK47dQqHE1_v3vLUOyiQu39PeFRL8IaiihKRiz0OBWZkEMRbVi33F1EFp5amiUlyFNVGYhIn1p3RjqcjLCN6fr1- -QoME1APTRz3fVH9jlpqPIqgoamIpS1nE-YNtAvFaZho7SKjmBSARdVjNDBcOJBkmsVgtWhTkxM37IliLvj7bVDHLjHj4GH2EVhO7goJ4Mgqft8kRJwDHD1-iJ4f0nLehAAY8IVnWsnjkI3Si-K9H_MzqcDNd_7S0yCEJ_c5hRztjcjnfp6m9tLb37akIQb4M1KeLiSpeoIHqQfmEOL7FqcL3iFo-di4L16MIa_PO7pp9ySQl7Eqw7xuPAHhhcn-Qz3Ft46fmMCGzPb-c71VLKFe-xw3GOuv6A3FDpNdmzT13jBPvHVe2_XDiRq3f-iqTvSih]--></g></svg>