<svg xmlns="http://www.w3.org/2000/svg" xmlns:xlink="http://www.w3.org/1999/xlink" contentStyleType="text/css" data-diagram-type="CLASS" height="334px" preserveAspectRatio="xMidYMid meet" style="" version="1.1" viewBox="0 0 482 334" width="482px" zoomAndPan="magnify"><defs><style type="text/css"></style></defs><g><!--class LocationManager--><g class="entity" data-entity="LocationManager" data-source-line="19" data-uid="ent0002" id="entity_LocationManager"><rect fill="#FFFFFF" height="234.1294" rx="4" ry="4" style="stroke:#BDC1C6;stroke-width:1;" width="468.3792" x="7" y="7"/><ellipse cx="184.3712" cy="22" fill="#E8F0FE" rx="10" ry="10" style="stroke:#181818;stroke-width:1;"/><path d="M186.1994,26.25 Q185.7931,26.4531 185.34,26.5625 Q184.8869,26.6719 184.4025,26.6719 Q182.6212,26.6719 181.6837,25.5156 Q180.7619,24.3438 180.7619,22.1406 Q180.7619,19.9219 181.6837,18.7656 Q182.6212,17.5938 184.4025,17.5938 Q184.8869,17.5938 185.34,17.7031 Q185.8087,17.7969 186.1994,18.0156 L186.1994,19.9375 Q185.7619,19.5313 185.34,19.3438 Q184.9181,19.1406 184.4806,19.1406 Q183.5275,19.1406 183.0431,19.9063 Q182.5587,20.6563 182.5587,22.1406 Q182.5587,23.6094 183.0431,24.3594 Q183.5275,25.1094 184.4806,25.1094 Q184.9181,25.1094 185.34,24.9219 Q185.7619,24.7344 186.1994,24.3281 L186.1994,26.25 Z " fill="#000000"/><text fill="#000000" font-family="Roboto" font-size="12" font-weight="bold" lengthAdjust="spacing" textLength="105.6367" x="203.3712" y="26.656">LocationManager</text><line style="stroke:#BDC1C6;stroke-width:1;" x1="8" x2="474.3792" y1="37" y2="37"/><ellipse cx="18" cy="50.6721" fill="#84BE84" rx="3" ry="3" style="stroke:#038048;stroke-width:1;"/><text fill="#000000" font-family="Roboto" font-size="12" lengthAdjust="spacing" textLength="165.0011" x="26" y="53.8281">isLocationEnabled() : boolean</text><ellipse cx="18" cy="67.0162" fill="#84BE84" rx="3" ry="3" style="stroke:#038048;stroke-width:1;"/><text fill="#000000" font-family="Roboto" font-size="12" lengthAdjust="spacing" textLength="198.3974" x="26" y="70.1722">isProviderEnabled(String) : boolean</text><ellipse cx="18" cy="83.3603" fill="#84BE84" rx="3" ry="3" style="stroke:#038048;stroke-width:1;"/><text fill="#000000" font-family="Roboto" font-size="12" lengthAdjust="spacing" textLength="227.2456" x="26" y="86.5163">getLastKnownLocation(String) : Location</text><ellipse cx="18" cy="99.7044" fill="#84BE84" rx="3" ry="3" style="stroke:#038048;stroke-width:1;"/><text fill="#000000" font-family="Roboto" font-size="12" lengthAdjust="spacing" textLength="443.3792" x="26" y="102.8604">getCurrentLocation(String, CancellationSignal, Executor, Consumer&lt;Location&gt;)</text><ellipse cx="18" cy="116.0485" fill="#84BE84" rx="3" ry="3" style="stroke:#038048;stroke-width:1;"/><text fill="#000000" font-family="Roboto" font-size="12" lengthAdjust="spacing" textLength="342.8184" x="26" y="119.2045">requestLocationUpdates(String, long, float, LocationListener)</text><ellipse cx="18" cy="132.3926" fill="#84BE84" rx="3" ry="3" style="stroke:#038048;stroke-width:1;"/><text fill="#000000" font-family="Roboto" font-size="12" lengthAdjust="spacing" textLength="224.0296" x="26" y="135.5487">requestFlush(String, LocationListener, ()</text><ellipse cx="18" cy="148.7367" fill="#84BE84" rx="3" ry="3" style="stroke:#038048;stroke-width:1;"/><text fill="#000000" font-family="Roboto" font-size="12" lengthAdjust="spacing" textLength="190.8974" x="26" y="151.8928">removeUpdates(LocationListener)</text><ellipse cx="18" cy="165.0809" fill="#84BE84" rx="3" ry="3" style="stroke:#038048;stroke-width:1;"/><text fill="#000000" font-family="Roboto" font-size="12" lengthAdjust="spacing" textLength="164.0052" x="26" y="168.2369">hasProvider(String) : boolean</text><ellipse cx="18" cy="181.425" fill="#84BE84" rx="3" ry="3" style="stroke:#038048;stroke-width:1;"/><text fill="#000000" font-family="Roboto" font-size="12" lengthAdjust="spacing" textLength="169.4772" x="26" y="184.581">getAllProviders() : List&lt;String&gt;</text><ellipse cx="18" cy="197.7691" fill="#84BE84" rx="3" ry="3" style="stroke:#038048;stroke-width:1;"/><text fill="#000000" font-family="Roboto" font-size="12" lengthAdjust="spacing" textLength="201.5294" x="26" y="200.9251">getProviders(boolean) : List&lt;String&gt;</text><ellipse cx="18" cy="214.1132" fill="#84BE84" rx="3" ry="3" style="stroke:#038048;stroke-width:1;"/><text fill="#000000" font-family="Roboto" font-size="12" lengthAdjust="spacing" textLength="281.4981" x="26" y="217.2692">getProviderProperties(String) : ProviderProperties</text><ellipse cx="18" cy="230.4573" fill="#84BE84" rx="3" ry="3" style="stroke:#038048;stroke-width:1;"/><text fill="#000000" font-family="Roboto" font-size="12" lengthAdjust="spacing" textLength="297.8181" x="26" y="233.6133">sendExtraCommand(String, String, Bundle) : boolean</text></g><g class="entity" data-entity="GMN3" data-source-line="34" data-uid="ent0004" id="entity_GMN3"><path d="M161.5,305 L161.5,323.3441 A4,4 0 0 0 165.5,327.3441 L316.057,327.3441 A4,4 0 0 0 320.057,323.3441 L320.057,311 L310.057,301 L245,301 L241,241.12 L237,301 L165.5,301 A4,4 0 0 0 161.5,305" fill="#FEF7E0" style="stroke:#FBBC04;stroke-width:0.5;"/><path d="M310.057,301 L310.057,309 A2,2 0 0 0 312.057,311 L320.057,311 L310.057,301" fill="#FEF7E0" style="stroke:#FBBC04;stroke-width:0.5;"/><text fill="#000000" font-family="Roboto" font-size="12" lengthAdjust="spacing" textLength="137.557" x="167.5" y="318.8281">&#8230; and 20 more methods</text></g><!--SRC=[XPJ1ZjCm48RlUOgHkEoA7jfTA1LQhTI4v491YC83EF4qiMfxYZtPRa58F0qFja-2qoRPA2tQ71B5_pT__8z7yLjbTy890xaejgMZsig4D3bW9wmF4bgEV4_vIaZQArl2HcYF0qNYHjIQCxByMHY4hvGJqsLWhNuYp6u6Og65zy_IxKM93neX9ot7wfBPgRncl6pUfd8M7Ip6jV4ezwliU9rXv2Iw5ea_9BDaVXdvLgbYQz5xc0s0fNEqRwlVPlFR-M8iDbj_4JXb6nfROZoFa6RlqkcO6YR8uZYPlXaUBAD3uiCEapExT95DipIgb4H0i-C363GvEXyTSyEA2i6Ax2TXHHbw_2i2UAryjvnQaMkKLzVmFfmUQHJs17nnz10yNGUimodQSeILo2lX-QEblUqS1sItrA99xPg97O4JI8GjKElZubgLLkW9f8zOr4mkg6HzRT3TTNNtrusVmnyr-jxi-quAHjzxQchk6qs29_q-LYfqCWpQq23JjQ_wiZ4vWQiMDlI0tKSk-bMYxzb_cxNKkcFyiUMDmzs9lc-PPw2jVO4BpnqwLdtuXZyNcogFLgQFuUUHa372oZvszup3N6aSxljtr8ndU6Kc0xGPprEmVVhp5u8Pt4p1aCCmVroHz57us76s_m40]--></g></svg>