<svg xmlns="http://www.w3.org/2000/svg" xmlns:xlink="http://www.w3.org/1999/xlink" contentStyleType="text/css" data-diagram-type="CLASS" height="334px" preserveAspectRatio="xMidYMid meet" style="" version="1.1" viewBox="0 0 325 334" width="325px" zoomAndPan="magnify"><defs><style type="text/css"></style></defs><g><!--class DevicePolicyManager--><g class="entity" data-entity="DevicePolicyManager" data-source-line="19" data-uid="ent0002" id="entity_DevicePolicyManager"><rect fill="#FFFFFF" height="234.1294" rx="4" ry="4" style="stroke:#BDC1C6;stroke-width:1;" width="311.5981" x="7" y="7"/><ellipse cx="94.3826" cy="22" fill="#E8F0FE" rx="10" ry="10" style="stroke:#181818;stroke-width:1;"/><path d="M96.2107,26.25 Q95.8045,26.4531 95.3513,26.5625 Q94.8982,26.6719 94.4138,26.6719 Q92.6326,26.6719 91.6951,25.5156 Q90.7732,24.3438 90.7732,22.1406 Q90.7732,19.9219 91.6951,18.7656 Q92.6326,17.5938 94.4138,17.5938 Q94.8982,17.5938 95.3513,17.7031 Q95.8201,17.7969 96.2107,18.0156 L96.2107,19.9375 Q95.7732,19.5313 95.3513,19.3438 Q94.9295,19.1406 94.492,19.1406 Q93.5388,19.1406 93.0545,19.9063 Q92.5701,20.6563 92.5701,22.1406 Q92.5701,23.6094 93.0545,24.3594 Q93.5388,25.1094 94.492,25.1094 Q94.9295,25.1094 95.3513,24.9219 Q95.7732,24.7344 96.2107,24.3281 L96.2107,26.25 Z " fill="#000000"/><text fill="#000000" font-family="Roboto" font-size="12" font-weight="bold" lengthAdjust="spacing" textLength="128.8329" x="113.3826" y="26.656">DevicePolicyManager</text><line style="stroke:#BDC1C6;stroke-width:1;" x1="8" x2="317.5981" y1="37" y2="37"/><ellipse cx="18" cy="50.6721" fill="#84BE84" rx="3" ry="3" style="stroke:#038048;stroke-width:1;"/><text fill="#000000" font-family="Roboto" font-size="12" lengthAdjust="spacing" textLength="93.4687" x="26" y="53.8281">setMtePolicy(int)</text><ellipse cx="18" cy="67.0162" fill="#84BE84" rx="3" ry="3" style="stroke:#038048;stroke-width:1;"/><text fill="#000000" font-family="Roboto" font-size="12" lengthAdjust="spacing" textLength="104.5567" x="26" y="70.1722">getMtePolicy() : int</text><ellipse cx="18" cy="83.3603" fill="#84BE84" rx="3" ry="3" style="stroke:#038048;stroke-width:1;"/><text fill="#000000" font-family="Roboto" font-size="12" lengthAdjust="spacing" textLength="176.3293" x="26" y="86.5163">isMtePolicyEnforced() : boolean</text><ellipse cx="18" cy="99.7044" fill="#84BE84" rx="3" ry="3" style="stroke:#038048;stroke-width:1;"/><text fill="#000000" font-family="Roboto" font-size="12" lengthAdjust="spacing" textLength="281.846" x="26" y="102.8604">setContentProtectionPolicy(ComponentName, int)</text><ellipse cx="18" cy="116.0485" fill="#84BE84" rx="3" ry="3" style="stroke:#038048;stroke-width:1;"/><text fill="#000000" font-family="Roboto" font-size="12" lengthAdjust="spacing" textLength="286.5981" x="26" y="119.2045">getContentProtectionPolicy(ComponentName) : int</text><ellipse cx="18" cy="132.3926" fill="#84BE84" rx="3" ry="3" style="stroke:#038048;stroke-width:1;"/><text fill="#000000" font-family="Roboto" font-size="12" lengthAdjust="spacing" textLength="148.5851" x="26" y="135.5487">setAppFunctionsPolicy(int)</text><ellipse cx="18" cy="148.7367" fill="#84BE84" rx="3" ry="3" style="stroke:#038048;stroke-width:1;"/><text fill="#000000" font-family="Roboto" font-size="12" lengthAdjust="spacing" textLength="159.6731" x="26" y="151.8928">getAppFunctionsPolicy() : int</text><ellipse cx="18" cy="165.0809" fill="#84BE84" rx="3" ry="3" style="stroke:#038048;stroke-width:1;"/><text fill="#000000" font-family="Roboto" font-size="12" lengthAdjust="spacing" textLength="242.3897" x="26" y="168.2369">isAdminActive(ComponentName) : boolean</text><ellipse cx="18" cy="181.425" fill="#84BE84" rx="3" ry="3" style="stroke:#038048;stroke-width:1;"/><text fill="#000000" font-family="Roboto" font-size="12" lengthAdjust="spacing" textLength="245.0537" x="26" y="184.581">getActiveAdmins() : List&lt;ComponentName&gt;</text><ellipse cx="18" cy="197.7691" fill="#84BE84" rx="3" ry="3" style="stroke:#038048;stroke-width:1;"/><text fill="#000000" font-family="Roboto" font-size="12" lengthAdjust="spacing" textLength="221.2456" x="26" y="200.9251">removeActiveAdmin(ComponentName)</text><ellipse cx="18" cy="214.1132" fill="#84BE84" rx="3" ry="3" style="stroke:#038048;stroke-width:1;"/><text fill="#000000" font-family="Roboto" font-size="12" lengthAdjust="spacing" textLength="283.034" x="26" y="217.2692">hasGrantedPolicy(ComponentName, int) : boolean</text><ellipse cx="18" cy="230.4573" fill="#84BE84" rx="3" ry="3" style="stroke:#038048;stroke-width:1;"/><text fill="#000000" font-family="Roboto" font-size="12" lengthAdjust="spacing" textLength="280.226" x="26" y="233.6133">setPasswordHistoryLength(ComponentName, int)</text></g><g class="entity" data-entity="GMN3" data-source-line="34" data-uid="ent0004" id="entity_GMN3"><path d="M80.5,305 L80.5,323.3441 A4,4 0 0 0 84.5,327.3441 L241.921,327.3441 A4,4 0 0 0 245.921,323.3441 L245.921,311 L235.921,301 L167,301 L163,241.12 L159,301 L84.5,301 A4,4 0 0 0 80.5,305" fill="#FEF7E0" style="stroke:#FBBC04;stroke-width:0.5;"/><path d="M235.921,301 L235.921,309 A2,2 0 0 0 237.921,311 L245.921,311 L235.921,301" fill="#FEF7E0" style="stroke:#FBBC04;stroke-width:0.5;"/><text fill="#000000" font-family="Roboto" font-size="12" lengthAdjust="spacing" textLength="144.421" x="86.5" y="318.8281">&#8230; and 240 more methods</text></g><!--SRC=[ZPF1Rfmm48RlFCL8lIHg3xj9kbrLLIMMG7f8gbMI5p1u5gp57cJFPaMhIdsQFbYVf8QWn06YbEFyt_psFnxSNfb6MA4X5yM-j7GmCg6QBB0Lnda93KVkYNALa7HKfeITg1q6YiITEDISaU7lGYFSKavCyy2T-e6mF0l4eXREFKldinAtDK9EjHohCRDL-O5ntdn8PGrQM8zxDwFSxxB-cs1a9Te1sLmcosGrZznNgjWRT0wM0H1RIyUX-sEsEb-jns9tzJU1nsoXiI76QOGq-vGknbIO8DjiaiL5-B2C5edR1fE9NRhE5baQLKeYe6wu1OqwH-kYFZTSueCgS4krAjeROKJfv_mp0dZla6zu44wKuTEkM8R5K_WCNkZgoZsLKxCZMw3ivPoeHc46lyHFmQ_arlf41IioWr52kY63Zylt0OB3_giZk8S_96wQx61ws4rlFwE-Y15BhKpizGUS7XAawQnwgczmlScrSlpbHTFN3hMeoNFFzCYuOohXhlm_ooXV7ybad5l_VaU_6D_ykMJRQpGbLxF3_1LrI-JRcKa3xUPUtPl-_Vq7X95mTh40JHRzgd15qaNeYvt3Fm00]--></g></svg>