<svg xmlns="http://www.w3.org/2000/svg" xmlns:xlink="http://www.w3.org/1999/xlink" contentStyleType="text/css" data-diagram-type="CLASS" height="108px" preserveAspectRatio="xMidYMid meet" style="" version="1.1" viewBox="0 0 630 108" width="630px" zoomAndPan="magnify"><defs><style type="text/css"></style></defs><g><!--class IInputProcessor--><g class="entity" data-entity="IInputProcessor" data-source-line="19" data-uid="ent0002" id="entity_IInputProcessor"><rect fill="#FFFFFF" height="87.0323" rx="4" ry="4" style="stroke:#BDC1C6;stroke-width:1;" width="609.9081" x="7" y="7"/><ellipse cx="262.4317" cy="22" fill="#B4A7E5" rx="10" ry="10" style="stroke:#181818;stroke-width:1;"/><path d="M259.4473,19.2813 L259.4473,17.75 L264.6505,17.75 L264.6505,19.2813 L262.9161,19.2813 L262.9161,24.9688 L264.6505,24.9688 L264.6505,26.5 L259.4473,26.5 L259.4473,24.9688 L261.1817,24.9688 L261.1817,19.2813 L259.4473,19.2813 Z " fill="#000000"/><text fill="#000000" font-family="Roboto" font-size="12" font-style="italic" font-weight="bold" lengthAdjust="spacing" textLength="91.0446" x="281.4317" y="26.656">IInputProcessor</text><line style="stroke:#BDC1C6;stroke-width:1;" x1="8" x2="615.9081" y1="37" y2="37"/><ellipse cx="18" cy="50.6721" fill="#84BE84" rx="3" ry="3" style="stroke:#038048;stroke-width:1;"/><text fill="#000000" font-family="Roboto" font-size="12" lengthAdjust="spacing" textLength="584.9081" x="26" y="53.8281">classify(android.hardware.input.common.MotionEvent) : android.hardware.input.common.Classification</text><ellipse cx="18" cy="67.0162" fill="#84BE84" rx="3" ry="3" style="stroke:#038048;stroke-width:1;"/><text fill="#000000" font-family="Roboto" font-size="12" lengthAdjust="spacing" textLength="35.7723" x="26" y="70.1722">reset()</text><ellipse cx="18" cy="83.3603" fill="#84BE84" rx="3" ry="3" style="stroke:#038048;stroke-width:1;"/><text fill="#000000" font-family="Roboto" font-size="12" lengthAdjust="spacing" textLength="87.8646" x="26" y="86.5163">resetDevice(int)</text></g><!--SRC=[XP9HIyCm58NV-oi2lcm8PNCwXszhry8U557_G9hShc5jRhcvtQZYVxVTnYnjqJm5pdTExadYziQMacGX4gdsEyBAwX1p9C4ahMiaiEovA-KogV5ex4waCdVGKJIaiievHiiliW3nXWaoZWFlvXF4_AuZgbmwzoijHYMkSn09vhglhfd991N3UFYb5LaWiUfxWrxlc_Yq1XYI1heWmIQSXyjnv2CpQc_1EJ7l06iYF5xS3_5oiLprnNRqVu5pjswmHOPXXIX-Z6PzgjiW3e9mTjzzM0O2vBg4S10NhU9P77cPqI2WABaM1HG9aFECRMofL22sMrjM_4geckgDwSiJulPqBIQj9z9gGgFzJ98-Dd_ADotjAomAjFupia4R7PglDXLFucyuF6SQ9LjJUmg10vvChziD78o2IJFRrFl-0G00]--></g></svg>