<svg xmlns="http://www.w3.org/2000/svg" xmlns:xlink="http://www.w3.org/1999/xlink" contentStyleType="text/css" height="322.9167px" preserveAspectRatio="none" style="width:497px;height:322px;background:#FDF6E3;" version="1.1" viewBox="0 0 497 322" width="497.9167px" zoomAndPan="magnify"><defs/><g><rect fill="#FDF6E3" height="322.9167" style="stroke:none;stroke-width:1.0416666666666667;" width="497.9167" x="0" y="0"/><!--class Client--><g id="elem_Client"><rect codeLine="4" fill="#FFE0E0" height="50" id="Client" rx="7.8125" ry="7.8125" style="stroke:#DC322F;stroke-width:2.0833333333333335;" width="77.7028" x="43.2292" y="7.2917"/><ellipse cx="58.8542" cy="23.9583" fill="#ADD1B2" rx="11.4583" ry="11.4583" style="stroke:#181818;stroke-width:1.0416666666666667;"/><path d="M61.9466,29.834 Q61.3444,30.1432 60.6771,30.2897 Q60.0098,30.4525 59.2773,30.4525 Q56.6732,30.4525 55.2897,28.7435 Q53.9225,27.0182 53.9225,23.763 Q53.9225,20.5078 55.2897,18.7826 Q56.6732,17.0573 59.2773,17.0573 Q60.0098,17.0573 60.6771,17.2201 Q61.3607,17.3828 61.9466,17.6921 L61.9466,20.5241 Q61.2956,19.9219 60.6771,19.6452 Q60.0586,19.3522 59.4076,19.3522 Q58.0078,19.3522 57.2917,20.4753 Q56.5755,21.582 56.5755,23.763 Q56.5755,25.944 57.2917,27.0671 Q58.0078,28.1738 59.4076,28.1738 Q60.0586,28.1738 60.6771,27.8971 Q61.2956,27.6042 61.9466,27.002 L61.9466,29.834 Z " fill="#000000"/><text fill="#000000" font-family="Dejavu Serif" font-size="14.5833" lengthAdjust="spacing" textLength="44.3695" x="73.4375" y="29.007">Client</text><line style="stroke:#DC322F;stroke-width:2.0833333333333335;" x1="44.2708" x2="119.8903" y1="40.625" y2="40.625"/><line style="stroke:#DC322F;stroke-width:2.0833333333333335;" x1="44.2708" x2="119.8903" y1="48.9583" y2="48.9583"/></g><!--class Target--><g id="elem_Target"><rect codeLine="7" fill="#FFE0E0" height="66.9759" id="Target" rx="7.8125" ry="7.8125" style="stroke:#DC322F;stroke-width:2.0833333333333335;" width="150.294" x="7.2917" y="119.7917"/><ellipse cx="53.4022" cy="136.4583" fill="#B4A7E5" rx="11.4583" ry="11.4583" style="stroke:#181818;stroke-width:1.0416666666666667;"/><path d="M49.1542,132.0475 L49.1542,129.8014 L56.8527,129.8014 L56.8527,132.0475 L54.2811,132.0475 L54.2811,140.4622 L56.8527,140.4622 L56.8527,142.7083 L49.1542,142.7083 L49.1542,140.4622 L51.7258,140.4622 L51.7258,132.0475 L49.1542,132.0475 Z " fill="#000000"/><text fill="#000000" font-family="Dejavu Serif" font-size="14.5833" font-style="italic" lengthAdjust="spacing" textLength="49.2188" x="74.7564" y="141.507">Target</text><line style="stroke:#DC322F;stroke-width:2.0833333333333335;" x1="8.3333" x2="156.544" y1="153.125" y2="153.125"/><line style="stroke:#DC322F;stroke-width:2.0833333333333335;" x1="8.3333" x2="156.544" y1="161.4583" y2="161.4583"/><text fill="#000000" font-family="Dejavu Serif" font-size="14.5833" lengthAdjust="spacing" textLength="79.9021" x="13.5417" y="179.1616">+request()</text><text fill="#000000" font-family="Dejavu Serif" font-size="14.5833" lengthAdjust="spacing" textLength="4.6356" x="93.4438" y="179.1616">&#160;</text><text fill="#000000" font-family="Dejavu Serif" font-size="14.5833" lengthAdjust="spacing" textLength="4.9133" x="98.0794" y="179.1616">:</text><text fill="#000000" font-family="Dejavu Serif" font-size="14.5833" lengthAdjust="spacing" textLength="4.6356" x="102.9928" y="179.1616">&#160;</text><text fill="#000000" font-family="Dejavu Serif" font-size="14.5833" lengthAdjust="spacing" textLength="43.7073" x="107.6284" y="179.1616">string</text></g><!--class ClassAdapter--><g id="elem_ClassAdapter"><rect codeLine="11" fill="#FFE0E0" height="66.9759" id="ClassAdapter" rx="7.8125" ry="7.8125" style="stroke:#DC322F;stroke-width:2.0833333333333335;" width="150.294" x="115.625" y="248.9583"/><ellipse cx="139.4028" cy="265.625" fill="#ADD1B2" rx="11.4583" ry="11.4583" style="stroke:#181818;stroke-width:1.0416666666666667;"/><path d="M142.4952,271.5007 Q141.893,271.8099 141.2257,271.9564 Q140.5584,272.1191 139.8259,272.1191 Q137.2218,272.1191 135.8383,270.4102 Q134.4711,268.6849 134.4711,265.4297 Q134.4711,262.1745 135.8383,260.4492 Q137.2218,258.724 139.8259,258.724 Q140.5584,258.724 141.2257,258.8867 Q141.9093,259.0495 142.4952,259.3587 L142.4952,262.1908 Q141.8442,261.5885 141.2257,261.3118 Q140.6072,261.0189 139.9562,261.0189 Q138.5564,261.0189 137.8403,262.1419 Q137.1241,263.2487 137.1241,265.4297 Q137.1241,267.6107 137.8403,268.7337 Q138.5564,269.8405 139.9562,269.8405 Q140.6072,269.8405 141.2257,269.5638 Q141.8442,269.2708 142.4952,268.6686 L142.4952,271.5007 Z " fill="#000000"/><text fill="#000000" font-family="Dejavu Serif" font-size="14.5833" lengthAdjust="spacing" textLength="98.8434" x="155.7978" y="270.6736">ClassAdapter</text><line style="stroke:#DC322F;stroke-width:2.0833333333333335;" x1="116.6667" x2="264.8773" y1="282.2917" y2="282.2917"/><line style="stroke:#DC322F;stroke-width:2.0833333333333335;" x1="116.6667" x2="264.8773" y1="290.625" y2="290.625"/><text fill="#000000" font-family="Dejavu Serif" font-size="14.5833" lengthAdjust="spacing" textLength="79.9021" x="121.875" y="308.3282">+request()</text><text fill="#000000" font-family="Dejavu Serif" font-size="14.5833" lengthAdjust="spacing" textLength="4.6356" x="201.7771" y="308.3282">&#160;</text><text fill="#000000" font-family="Dejavu Serif" font-size="14.5833" lengthAdjust="spacing" textLength="4.9133" x="206.4128" y="308.3282">:</text><text fill="#000000" font-family="Dejavu Serif" font-size="14.5833" lengthAdjust="spacing" textLength="4.6356" x="211.3261" y="308.3282">&#160;</text><text fill="#000000" font-family="Dejavu Serif" font-size="14.5833" lengthAdjust="spacing" textLength="43.7073" x="215.9617" y="308.3282">string</text></g><!--class Adaptee--><g id="elem_Adaptee"><rect codeLine="15" fill="#FFE0E0" height="66.9759" id="Adaptee" rx="7.8125" ry="7.8125" style="stroke:#DC322F;stroke-width:2.0833333333333335;" width="210.8134" x="193.75" y="119.7917"/><ellipse cx="264.2207" cy="136.4583" fill="#ADD1B2" rx="11.4583" ry="11.4583" style="stroke:#181818;stroke-width:1.0416666666666667;"/><path d="M267.3131,142.334 Q266.7109,142.6432 266.0436,142.7897 Q265.3763,142.9525 264.6439,142.9525 Q262.0397,142.9525 260.6562,141.2435 Q259.289,139.5182 259.289,136.263 Q259.289,133.0078 260.6562,131.2826 Q262.0397,129.5573 264.6439,129.5573 Q265.3763,129.5573 266.0436,129.7201 Q266.7272,129.8828 267.3131,130.1921 L267.3131,133.0241 Q266.6621,132.4219 266.0436,132.1452 Q265.4251,131.8522 264.7741,131.8522 Q263.3743,131.8522 262.6582,132.9753 Q261.942,134.082 261.942,136.263 Q261.942,138.444 262.6582,139.5671 Q263.3743,140.6738 264.7741,140.6738 Q265.4251,140.6738 266.0436,140.3971 Q266.6621,140.1042 267.3131,139.502 L267.3131,142.334 Z " fill="#000000"/><text fill="#000000" font-family="Dejavu Serif" font-size="14.5833" lengthAdjust="spacing" textLength="61.0179" x="285.5748" y="141.507">Adaptee</text><line style="stroke:#DC322F;stroke-width:2.0833333333333335;" x1="194.7917" x2="403.5217" y1="153.125" y2="153.125"/><line style="stroke:#DC322F;stroke-width:2.0833333333333335;" x1="194.7917" x2="403.5217" y1="161.4583" y2="161.4583"/><text fill="#000000" font-family="Dejavu Serif" font-size="14.5833" lengthAdjust="spacing" textLength="140.4215" x="200" y="179.1616">+specificRequest()</text><text fill="#000000" font-family="Dejavu Serif" font-size="14.5833" lengthAdjust="spacing" textLength="4.6356" x="340.4215" y="179.1616">&#160;</text><text fill="#000000" font-family="Dejavu Serif" font-size="14.5833" lengthAdjust="spacing" textLength="4.9133" x="345.0572" y="179.1616">:</text><text fill="#000000" font-family="Dejavu Serif" font-size="14.5833" lengthAdjust="spacing" textLength="4.6356" x="349.9705" y="179.1616">&#160;</text><text fill="#000000" font-family="Dejavu Serif" font-size="14.5833" lengthAdjust="spacing" textLength="43.7073" x="354.6061" y="179.1616">string</text></g><path d="M302.0833,256.25 L302.0833,273.055 L259.669,303.2796 L302.0833,281.3883 L302.0833,298.1934 A0,0 0 0 0 302.0833,298.1934 L491.153,298.1934 A0,0 0 0 0 491.153,298.1934 L491.153,266.6667 L480.7363,256.25 L302.0833,256.25 A0,0 0 0 0 302.0833,256.25 " fill="#FFFFCC" style="stroke:#B58900;stroke-width:2.0833333333333335;"/><path d="M480.7363,256.25 L480.7363,266.6667 L491.153,266.6667 L480.7363,256.25 " fill="#FFFFCC" style="stroke:#B58900;stroke-width:2.0833333333333335;"/><text fill="#000000" font-family="Dejavu Serif" font-size="13.5417" lengthAdjust="spacing" textLength="43.8451" x="308.3333" y="274.028">return</text><text fill="#000000" font-family="Dejavu Serif" font-size="13.5417" lengthAdjust="spacing" textLength="4.3045" x="352.1784" y="274.028">&#160;</text><text fill="#000000" font-family="Dejavu Serif" font-size="13.5417" lengthAdjust="spacing" textLength="119.045" x="356.483" y="274.028">specificRequest()</text><text fill="#000000" font-family="Dejavu Serif" font-size="13.5417" lengthAdjust="spacing" textLength="30.0852" x="308.3333" y="289.7914">with</text><text fill="#000000" font-family="Dejavu Serif" font-size="13.5417" lengthAdjust="spacing" textLength="4.3045" x="338.4186" y="289.7914">&#160;</text><text fill="#000000" font-family="Dejavu Serif" font-size="13.5417" lengthAdjust="spacing" textLength="74.7106" x="342.7231" y="289.7914">translation</text><!--link Client to Target--><g id="link_Client_Target"><path codeLine="19" d="M82.2917,57.3646 C82.2917,75.2604 82.2917,93.625 82.2917,113.2813 " fill="none" id="Client-to-Target" style="stroke:#657B83;stroke-width:2.0833333333333335;stroke-dasharray:7.0,7.0;"/><polygon fill="#657B83" points="82.2917,119.5313,86.4583,110.1563,82.2917,114.3229,78.125,110.1563,82.2917,119.5313" style="stroke:#657B83;stroke-width:2.0833333333333335;"/></g><!--reverse link Target to ClassAdapter--><g id="link_Target_ClassAdapter"><path codeLine="20" d="M122.0695,200.832 C138.3716,219.957 146.7708,229.8021 163.0625,248.9167 " fill="none" id="Target-backto-ClassAdapter" style="stroke:#657B83;stroke-width:2.0833333333333335;stroke-dasharray:7.0,7.0;"/><polygon fill="none" points="109.9063,186.5625,117.313,204.8864,126.826,196.7776,109.9063,186.5625" style="stroke:#657B83;stroke-width:2.0833333333333335;"/></g><!--reverse link Adaptee to ClassAdapter--><g id="link_Adaptee_ClassAdapter"><path codeLine="21" d="M259.1805,200.832 C242.8784,219.957 234.4792,229.8021 218.1875,248.9167 " fill="none" id="Adaptee-backto-ClassAdapter" style="stroke:#657B83;stroke-width:2.0833333333333335;"/><polygon fill="none" points="271.3438,186.5625,254.424,196.7776,263.937,204.8864,271.3438,186.5625" style="stroke:#657B83;stroke-width:2.0833333333333335;"/></g><!--SRC=[ZOwxRi9G38PtFuMxKLL4p152Gfsw0YzmE3Y9rU04sqT8NDwzIHegHNJ0e__Rz-OL7GajIPtCmRvPsg3XYB4EPcjtvNro-egDRFb2k00O5FoicSJn2dS05YSjGYJS1Isf_s9t7wXqIcG-UySShQkIihS_2lg1GsYxx4k1No_zUQsbo0N7pR-PaI_BLYCKZ6pBMvPDnk5HlBpDvrC5f752vR9oR8g9bkSZwq2Zv4db6MaGp-mLkWQnEZWt0YG7x9lX1m00]--></g></svg>