<svg xmlns="http://www.w3.org/2000/svg" xmlns:xlink="http://www.w3.org/1999/xlink" contentStyleType="text/css" height="494.7917px" preserveAspectRatio="none" style="width:715px;height:494px;background:#FDF6E3;" version="1.1" viewBox="0 0 715 494" width="715.625px" zoomAndPan="magnify"><defs/><g><rect fill="#FDF6E3" height="494.7917" style="stroke:none;stroke-width:1.0416666666666667;" width="715.625" x="0" y="0"/><!--class EventManager--><g id="elem_EventManager"><rect codeLine="2" fill="#FFE0E0" height="168.8314" id="EventManager" rx="7.8125" ry="7.8125" style="stroke:#DC322F;stroke-width:2.0833333333333335;" width="218.0481" x="236.4583" y="7.2917"/><ellipse cx="286.3464" cy="23.9583" fill="#ADD1B2" rx="11.4583" ry="11.4583" style="stroke:#181818;stroke-width:1.0416666666666667;"/><path d="M289.4389,29.834 Q288.8367,30.1432 288.1694,30.2897 Q287.502,30.4525 286.7696,30.4525 Q284.1654,30.4525 282.782,28.7435 Q281.4148,27.0182 281.4148,23.763 Q281.4148,20.5078 282.782,18.7826 Q284.1654,17.0573 286.7696,17.0573 Q287.502,17.0573 288.1694,17.2201 Q288.8529,17.3828 289.4389,17.6921 L289.4389,20.5241 Q288.7878,19.9219 288.1694,19.6452 Q287.5509,19.3522 286.8998,19.3522 Q285.5001,19.3522 284.7839,20.4753 Q284.0678,21.582 284.0678,23.763 Q284.0678,25.944 284.7839,27.0671 Q285.5001,28.1738 286.8998,28.1738 Q287.5509,28.1738 288.1694,27.8971 Q288.7878,27.6042 289.4389,27.002 L289.4389,29.834 Z " fill="#000000"/><text fill="#000000" font-family="Dejavu Serif" font-size="14.5833" lengthAdjust="spacing" textLength="109.4177" x="307.7006" y="29.007">EventManager</text><line style="stroke:#DC322F;stroke-width:2.0833333333333335;" x1="237.5" x2="453.4648" y1="40.625" y2="40.625"/><rect fill="none" height="6.25" style="stroke:#C82930;stroke-width:1.0416666666666667;" width="6.25" x="244.7917" y="60.2051"/><text fill="#000000" font-family="Dejavu Serif" font-size="14.5833" lengthAdjust="spacing" textLength="68.6941" x="257.2917" y="58.3282">listeners:</text><text fill="#000000" font-family="Dejavu Serif" font-size="14.5833" lengthAdjust="spacing" textLength="4.6356" x="325.9857" y="58.3282">&#160;</text><text fill="#000000" font-family="Dejavu Serif" font-size="14.5833" lengthAdjust="spacing" textLength="93.5242" x="330.6213" y="58.3282">Map&lt;string,</text><text fill="#000000" font-family="Dejavu Serif" font-size="14.5833" lengthAdjust="spacing" textLength="168.4347" x="257.2917" y="75.3042">List&lt;EventListener&gt;&gt;</text><line style="stroke:#DC322F;stroke-width:2.0833333333333335;" x1="237.5" x2="453.4648" y1="82.9102" y2="82.9102"/><ellipse cx="247.9167" cy="105.6152" fill="#84BE84" rx="3.125" ry="3.125" style="stroke:#038048;stroke-width:1.0416666666666667;"/><text fill="#000000" font-family="Dejavu Serif" font-size="14.5833" lengthAdjust="spacing" textLength="125.4964" x="257.2917" y="100.6134">subscribe(string,</text><text fill="#000000" font-family="Dejavu Serif" font-size="14.5833" lengthAdjust="spacing" textLength="114.6871" x="257.2917" y="117.5893">EventListener):</text><text fill="#000000" font-family="Dejavu Serif" font-size="14.5833" lengthAdjust="spacing" textLength="4.6356" x="371.9788" y="117.5893">&#160;</text><text fill="#000000" font-family="Dejavu Serif" font-size="14.5833" lengthAdjust="spacing" textLength="31.0181" x="376.6144" y="117.5893">void</text><ellipse cx="247.9167" cy="139.5671" fill="#84BE84" rx="3.125" ry="3.125" style="stroke:#038048;stroke-width:1.0416666666666667;"/><text fill="#000000" font-family="Dejavu Serif" font-size="14.5833" lengthAdjust="spacing" textLength="144.281" x="257.2917" y="134.5652">unsubscribe(string,</text><text fill="#000000" font-family="Dejavu Serif" font-size="14.5833" lengthAdjust="spacing" textLength="114.6871" x="257.2917" y="151.5411">EventListener):</text><text fill="#000000" font-family="Dejavu Serif" font-size="14.5833" lengthAdjust="spacing" textLength="4.6356" x="371.9788" y="151.5411">&#160;</text><text fill="#000000" font-family="Dejavu Serif" font-size="14.5833" lengthAdjust="spacing" textLength="31.0181" x="376.6144" y="151.5411">void</text><ellipse cx="247.9167" cy="165.0309" fill="#84BE84" rx="3.125" ry="3.125" style="stroke:#038048;stroke-width:1.0416666666666667;"/><text fill="#000000" font-family="Dejavu Serif" font-size="14.5833" lengthAdjust="spacing" textLength="96.3654" x="257.2917" y="168.517">notify(string,</text><text fill="#000000" font-family="Dejavu Serif" font-size="14.5833" lengthAdjust="spacing" textLength="4.6356" x="353.657" y="168.517">&#160;</text><text fill="#000000" font-family="Dejavu Serif" font-size="14.5833" lengthAdjust="spacing" textLength="54.3101" x="358.2926" y="168.517">string):</text><text fill="#000000" font-family="Dejavu Serif" font-size="14.5833" lengthAdjust="spacing" textLength="4.6356" x="412.6027" y="168.517">&#160;</text><text fill="#000000" font-family="Dejavu Serif" font-size="14.5833" lengthAdjust="spacing" textLength="31.0181" x="417.2384" y="168.517">void</text></g><!--class EventListener--><g id="elem_EventListener"><rect codeLine="9" fill="#FFE0E0" height="83.9518" id="EventListener" rx="7.8125" ry="7.8125" style="stroke:#DC322F;stroke-width:2.0833333333333335;" width="201.001" x="244.7917" y="256.25"/><ellipse cx="289.0292" cy="272.9167" fill="#B4A7E5" rx="11.4583" ry="11.4583" style="stroke:#181818;stroke-width:1.0416666666666667;"/><path d="M284.7811,268.5059 L284.7811,266.2598 L292.4797,266.2598 L292.4797,268.5059 L289.9081,268.5059 L289.9081,276.9206 L292.4797,276.9206 L292.4797,279.1667 L284.7811,279.1667 L284.7811,276.9206 L287.3528,276.9206 L287.3528,268.5059 L284.7811,268.5059 Z " fill="#000000"/><text fill="#000000" font-family="Dejavu Serif" font-size="14.5833" font-style="italic" lengthAdjust="spacing" textLength="104.0843" x="309.9709" y="277.9653">EventListener</text><line style="stroke:#DC322F;stroke-width:2.0833333333333335;" x1="245.8333" x2="444.751" y1="289.5833" y2="289.5833"/><line style="stroke:#DC322F;stroke-width:2.0833333333333335;" x1="245.8333" x2="444.751" y1="297.9167" y2="297.9167"/><ellipse cx="256.25" cy="320.6217" fill="#84BE84" rx="3.125" ry="3.125" style="stroke:#038048;stroke-width:1.0416666666666667;"/><text fill="#000000" font-family="Dejavu Serif" font-size="14.5833" lengthAdjust="spacing" textLength="114.9719" x="265.625" y="315.6199">onEvent(string,</text><text fill="#000000" font-family="Dejavu Serif" font-size="14.5833" lengthAdjust="spacing" textLength="4.6356" x="380.5969" y="315.6199">&#160;</text><text fill="#000000" font-family="Dejavu Serif" font-size="14.5833" lengthAdjust="spacing" textLength="54.3101" x="385.2325" y="315.6199">string):</text><text fill="#000000" font-family="Dejavu Serif" font-size="14.5833" lengthAdjust="spacing" textLength="31.0181" x="265.625" y="332.5958">void</text></g><!--class LoggingListener--><g id="elem_LoggingListener"><rect codeLine="13" fill="#FFE0E0" height="83.9518" id="LoggingListener" rx="7.8125" ry="7.8125" style="stroke:#DC322F;stroke-width:2.0833333333333335;" width="201.001" x="7.2917" y="404.1667"/><ellipse cx="43.5375" cy="420.8333" fill="#ADD1B2" rx="11.4583" ry="11.4583" style="stroke:#181818;stroke-width:1.0416666666666667;"/><path d="M46.63,426.709 Q46.0278,427.0182 45.3605,427.1647 Q44.6931,427.3275 43.9607,427.3275 Q41.3566,427.3275 39.9731,425.6185 Q38.6059,423.8932 38.6059,420.638 Q38.6059,417.3828 39.9731,415.6576 Q41.3566,413.9323 43.9607,413.9323 Q44.6931,413.9323 45.3605,414.0951 Q46.0441,414.2578 46.63,414.5671 L46.63,417.3991 Q45.979,416.7969 45.3605,416.5202 Q44.742,416.2272 44.0909,416.2272 Q42.6912,416.2272 41.975,417.3503 Q41.2589,418.457 41.2589,420.638 Q41.2589,422.819 41.975,423.9421 Q42.6912,425.0488 44.0909,425.0488 Q44.742,425.0488 45.3605,424.7721 Q45.979,424.4792 46.63,423.877 L46.63,426.709 Z " fill="#000000"/><text fill="#000000" font-family="Dejavu Serif" font-size="14.5833" lengthAdjust="spacing" textLength="121.8435" x="62.7033" y="425.882">LoggingListener</text><line style="stroke:#DC322F;stroke-width:2.0833333333333335;" x1="8.3333" x2="207.251" y1="437.5" y2="437.5"/><line style="stroke:#DC322F;stroke-width:2.0833333333333335;" x1="8.3333" x2="207.251" y1="445.8333" y2="445.8333"/><ellipse cx="18.75" cy="468.5384" fill="#84BE84" rx="3.125" ry="3.125" style="stroke:#038048;stroke-width:1.0416666666666667;"/><text fill="#000000" font-family="Dejavu Serif" font-size="14.5833" lengthAdjust="spacing" textLength="114.9719" x="28.125" y="463.5366">onEvent(string,</text><text fill="#000000" font-family="Dejavu Serif" font-size="14.5833" lengthAdjust="spacing" textLength="4.6356" x="143.0969" y="463.5366">&#160;</text><text fill="#000000" font-family="Dejavu Serif" font-size="14.5833" lengthAdjust="spacing" textLength="54.3101" x="147.7325" y="463.5366">string):</text><text fill="#000000" font-family="Dejavu Serif" font-size="14.5833" lengthAdjust="spacing" textLength="31.0181" x="28.125" y="480.5125">void</text></g><!--class EmailAlerter--><g id="elem_EmailAlerter"><rect codeLine="17" fill="#FFE0E0" height="83.9518" id="EmailAlerter" rx="7.8125" ry="7.8125" style="stroke:#DC322F;stroke-width:2.0833333333333335;" width="201.001" x="244.7917" y="404.1667"/><ellipse cx="293.487" cy="420.8333" fill="#ADD1B2" rx="11.4583" ry="11.4583" style="stroke:#181818;stroke-width:1.0416666666666667;"/><path d="M296.5795,426.709 Q295.9773,427.0182 295.31,427.1647 Q294.6426,427.3275 293.9102,427.3275 Q291.3061,427.3275 289.9226,425.6185 Q288.5554,423.8932 288.5554,420.638 Q288.5554,417.3828 289.9226,415.6576 Q291.3061,413.9323 293.9102,413.9323 Q294.6426,413.9323 295.31,414.0951 Q295.9936,414.2578 296.5795,414.5671 L296.5795,417.3991 Q295.9284,416.7969 295.31,416.5202 Q294.6915,416.2272 294.0404,416.2272 Q292.6407,416.2272 291.9245,417.3503 Q291.2084,418.457 291.2084,420.638 Q291.2084,422.819 291.9245,423.9421 Q292.6407,425.0488 294.0404,425.0488 Q294.6915,425.0488 295.31,424.7721 Q295.9284,424.4792 296.5795,423.877 L296.5795,426.709 Z " fill="#000000"/><text fill="#000000" font-family="Dejavu Serif" font-size="14.5833" lengthAdjust="spacing" textLength="94.7561" x="314.8412" y="425.882">EmailAlerter</text><line style="stroke:#DC322F;stroke-width:2.0833333333333335;" x1="245.8333" x2="444.751" y1="437.5" y2="437.5"/><line style="stroke:#DC322F;stroke-width:2.0833333333333335;" x1="245.8333" x2="444.751" y1="445.8333" y2="445.8333"/><ellipse cx="256.25" cy="468.5384" fill="#84BE84" rx="3.125" ry="3.125" style="stroke:#038048;stroke-width:1.0416666666666667;"/><text fill="#000000" font-family="Dejavu Serif" font-size="14.5833" lengthAdjust="spacing" textLength="114.9719" x="265.625" y="463.5366">onEvent(string,</text><text fill="#000000" font-family="Dejavu Serif" font-size="14.5833" lengthAdjust="spacing" textLength="4.6356" x="380.5969" y="463.5366">&#160;</text><text fill="#000000" font-family="Dejavu Serif" font-size="14.5833" lengthAdjust="spacing" textLength="54.3101" x="385.2325" y="463.5366">string):</text><text fill="#000000" font-family="Dejavu Serif" font-size="14.5833" lengthAdjust="spacing" textLength="31.0181" x="265.625" y="480.5125">void</text></g><!--class SMSAlerter--><g id="elem_SMSAlerter"><rect codeLine="21" fill="#FFE0E0" height="83.9518" id="SMSAlerter" rx="7.8125" ry="7.8125" style="stroke:#DC322F;stroke-width:2.0833333333333335;" width="201.001" x="482.2917" y="404.1667"/><ellipse cx="534.7788" cy="420.8333" fill="#ADD1B2" rx="11.4583" ry="11.4583" style="stroke:#181818;stroke-width:1.0416666666666667;"/><path d="M537.8713,426.709 Q537.2691,427.0182 536.6018,427.1647 Q535.9344,427.3275 535.202,427.3275 Q532.5979,427.3275 531.2144,425.6185 Q529.8472,423.8932 529.8472,420.638 Q529.8472,417.3828 531.2144,415.6576 Q532.5979,413.9323 535.202,413.9323 Q535.9344,413.9323 536.6018,414.0951 Q537.2854,414.2578 537.8713,414.5671 L537.8713,417.3991 Q537.2203,416.7969 536.6018,416.5202 Q535.9833,416.2272 535.3322,416.2272 Q533.9325,416.2272 533.2163,417.3503 Q532.5002,418.457 532.5002,420.638 Q532.5002,422.819 533.2163,423.9421 Q533.9325,425.0488 535.3322,425.0488 Q535.9833,425.0488 536.6018,424.7721 Q537.2203,424.4792 537.8713,423.877 L537.8713,426.709 Z " fill="#000000"/><text fill="#000000" font-family="Dejavu Serif" font-size="14.5833" lengthAdjust="spacing" textLength="87.1724" x="556.133" y="425.882">SMSAlerter</text><line style="stroke:#DC322F;stroke-width:2.0833333333333335;" x1="483.3333" x2="682.251" y1="437.5" y2="437.5"/><line style="stroke:#DC322F;stroke-width:2.0833333333333335;" x1="483.3333" x2="682.251" y1="445.8333" y2="445.8333"/><ellipse cx="493.75" cy="468.5384" fill="#84BE84" rx="3.125" ry="3.125" style="stroke:#038048;stroke-width:1.0416666666666667;"/><text fill="#000000" font-family="Dejavu Serif" font-size="14.5833" lengthAdjust="spacing" textLength="114.9719" x="503.125" y="463.5366">onEvent(string,</text><text fill="#000000" font-family="Dejavu Serif" font-size="14.5833" lengthAdjust="spacing" textLength="4.6356" x="618.0969" y="463.5366">&#160;</text><text fill="#000000" font-family="Dejavu Serif" font-size="14.5833" lengthAdjust="spacing" textLength="54.3101" x="622.7325" y="463.5366">string):</text><text fill="#000000" font-family="Dejavu Serif" font-size="14.5833" lengthAdjust="spacing" textLength="31.0181" x="503.125" y="480.5125">void</text></g><g id="elem_GMN11"><path d="M491.1458,70.8333 L491.1458,87.5 L454.5208,91.6667 L491.1458,95.8333 L491.1458,112.915 A7.8125,7.8125 0 0 0 498.9583,120.7275 L699.8433,120.7275 A7.8125,7.8125 0 0 0 707.6558,112.915 L707.6558,73.4375 L697.2392,63.0208 L498.9583,63.0208 A7.8125,7.8125 0 0 0 491.1458,70.8333 " fill="#FFFFCC" style="stroke:#B58900;stroke-width:2.0833333333333335;"/><path d="M697.2392,63.0208 L697.2392,69.5313 A3.9063,3.9063 0 0 0 701.1454,73.4375 L707.6558,73.4375 L697.2392,63.0208 " fill="#FFFFCC" style="stroke:#B58900;stroke-width:2.0833333333333335;"/><text fill="#000000" font-family="Dejavu Serif" font-size="13.5417" lengthAdjust="spacing" textLength="62.3657" x="506.4578" y="80.7988">Manages</text><text fill="#000000" font-family="Dejavu Serif" font-size="13.5417" lengthAdjust="spacing" textLength="4.3045" x="568.8235" y="80.7988">&#160;</text><text fill="#000000" font-family="Dejavu Serif" font-size="13.5417" lengthAdjust="spacing" textLength="91.9418" x="573.128" y="80.7988">subscriptions</text><text fill="#000000" font-family="Dejavu Serif" font-size="13.5417" lengthAdjust="spacing" textLength="4.3045" x="665.0698" y="80.7988">&#160;</text><text fill="#000000" font-family="Dejavu Serif" font-size="13.5417" lengthAdjust="spacing" textLength="13.5946" x="669.3743" y="80.7988">to</text><text fill="#000000" font-family="Dejavu Serif" font-size="13.5417" lengthAdjust="spacing" textLength="59.6878" x="523.2824" y="96.5622">different</text><text fill="#000000" font-family="Dejavu Serif" font-size="13.5417" lengthAdjust="spacing" textLength="4.3045" x="582.9702" y="96.5622">&#160;</text><text fill="#000000" font-family="Dejavu Serif" font-size="13.5417" lengthAdjust="spacing" textLength="37.8413" x="587.2747" y="96.5622">event</text><text fill="#000000" font-family="Dejavu Serif" font-size="13.5417" lengthAdjust="spacing" textLength="4.3045" x="625.116" y="96.5622">&#160;</text><text fill="#000000" font-family="Dejavu Serif" font-size="13.5417" lengthAdjust="spacing" textLength="36.7238" x="629.4205" y="96.5622">types</text><text fill="#000000" font-family="Dejavu Serif" font-size="13.5417" lengthAdjust="spacing" textLength="26.9709" x="497.3958" y="112.3255">(file</text><text fill="#000000" font-family="Dejavu Serif" font-size="13.5417" lengthAdjust="spacing" textLength="4.3045" x="524.3668" y="112.3255">&#160;</text><text fill="#000000" font-family="Dejavu Serif" font-size="13.5417" lengthAdjust="spacing" textLength="77.2827" x="528.6713" y="112.3255">operations,</text><text fill="#000000" font-family="Dejavu Serif" font-size="13.5417" lengthAdjust="spacing" textLength="4.3045" x="605.954" y="112.3255">&#160;</text><text fill="#000000" font-family="Dejavu Serif" font-size="13.5417" lengthAdjust="spacing" textLength="46.8404" x="610.2585" y="112.3255">errors,</text><text fill="#000000" font-family="Dejavu Serif" font-size="13.5417" lengthAdjust="spacing" textLength="4.3045" x="657.0989" y="112.3255">&#160;</text><text fill="#000000" font-family="Dejavu Serif" font-size="13.5417" lengthAdjust="spacing" textLength="30.6274" x="661.4034" y="112.3255">etc.)</text></g><!--link EventManager to EventListener--><g id="link_EventManager_EventListener"><path codeLine="25" d="M345.3125,188.7604 C345.3125,216.2813 345.3125,226.9375 345.3125,249.8854 " fill="none" id="EventManager-EventListener" style="stroke:#657B83;stroke-width:2.0833333333333335;"/><polygon fill="none" points="345.3125,176.2604,341.1458,182.5104,345.3125,188.7604,349.4792,182.5104,345.3125,176.2604" style="stroke:#657B83;stroke-width:2.0833333333333335;"/><polygon fill="#657B83" points="345.3125,256.1354,349.4792,246.7604,345.3125,250.9271,341.1458,246.7604,345.3125,256.1354" style="stroke:#657B83;stroke-width:2.0833333333333335;"/><text fill="#000000" font-family="Dejavu Serif" font-size="13.5417" lengthAdjust="spacing" textLength="59.225" x="346.3542" y="220.903">listeners</text></g><!--reverse link EventListener to LoggingListener--><g id="link_EventListener_LoggingListener"><path codeLine="26" d="M262.2291,350.497 C229.9895,370.2887 207.4271,384.1458 175.1667,403.9583 " fill="none" id="EventListener-backto-LoggingListener" style="stroke:#657B83;stroke-width:2.0833333333333335;stroke-dasharray:7.0,7.0;"/><polygon fill="none" points="278.2083,340.6875,258.9593,345.1706,265.499,355.8234,278.2083,340.6875" style="stroke:#657B83;stroke-width:2.0833333333333335;"/></g><!--reverse link EventListener to EmailAlerter--><g id="link_EventListener_EmailAlerter"><path codeLine="27" d="M345.3125,359.625 C345.3125,379.3333 345.3125,384.0938 345.3125,403.8125 " fill="none" id="EventListener-backto-EmailAlerter" style="stroke:#657B83;stroke-width:2.0833333333333335;stroke-dasharray:7.0,7.0;"/><polygon fill="none" points="345.3125,340.875,339.0625,359.625,351.5625,359.625,345.3125,340.875" style="stroke:#657B83;stroke-width:2.0833333333333335;"/></g><!--reverse link EventListener to SMSAlerter--><g id="link_EventListener_SMSAlerter"><path codeLine="28" d="M428.3959,350.497 C460.6355,370.2887 483.1979,384.1458 515.4583,403.9583 " fill="none" id="EventListener-backto-SMSAlerter" style="stroke:#657B83;stroke-width:2.0833333333333335;stroke-dasharray:7.0,7.0;"/><polygon fill="none" points="412.4167,340.6875,425.126,355.8234,431.6657,345.1706,412.4167,340.6875" style="stroke:#657B83;stroke-width:2.0833333333333335;"/></g><!--SRC=[dP91ReCm44NtFiLqboY10o24r4LsiCe971WJIuwDPeP8KTkx5mn9IvGkg3Usvhzl-tly9cUy873lNS-YQgUPuN15BvNskaM23mN3I9nbGO_46LIword8-dOFvL3E8r_EG554muxx4zTaJxYvimjicy4rs6PYUx-6za6ikJt0QRuJNqfPBqX6rxZSOqwo2pwM__PFZr26jXtg_tGVBjgwTuSagwt7whZMk6XOI9BYANa6Z_QffP9_fkbpr5V8xpolz9zBApNq1u5iUnO8Pl6POfnfpJ2tl1CRF8E4A3RM6AJ10JZwG6uTSbGsnZg4q27fwDW34WKQPwdJhKBVm7ZoDm00]--></g></svg>