<svg xmlns="http://www.w3.org/2000/svg" xmlns:xlink="http://www.w3.org/1999/xlink" contentStyleType="text/css" height="492.7083px" preserveAspectRatio="none" style="width:882px;height:492px;background:#FDF6E3;" version="1.1" viewBox="0 0 882 492" width="882.2917px" zoomAndPan="magnify"><defs/><g><rect fill="#FDF6E3" height="492.7083" style="stroke:none;stroke-width:1.0416666666666667;" width="882.2917" x="0" y="0"/><!--class DiscountStrategy--><g id="elem_DiscountStrategy"><rect codeLine="2" fill="#FFE0E0" height="100.9277" id="DiscountStrategy" rx="7.8125" ry="7.8125" style="stroke:#DC322F;stroke-width:2.0833333333333335;" width="201.1861" x="337.5" y="221.875"/><ellipse cx="370.6024" cy="238.5417" fill="#B4A7E5" rx="11.4583" ry="11.4583" style="stroke:#181818;stroke-width:1.0416666666666667;"/><path d="M366.3544,234.1309 L366.3544,231.8848 L374.0529,231.8848 L374.0529,234.1309 L371.4813,234.1309 L371.4813,242.5456 L374.0529,242.5456 L374.0529,244.7917 L366.3544,244.7917 L366.3544,242.5456 L368.926,242.5456 L368.926,234.1309 L366.3544,234.1309 Z " fill="#000000"/><text fill="#000000" font-family="Dejavu Serif" font-size="14.5833" font-style="italic" lengthAdjust="spacing" textLength="129.0141" x="389.0696" y="243.5903">DiscountStrategy</text><line style="stroke:#DC322F;stroke-width:2.0833333333333335;" x1="338.5417" x2="537.6444" y1="255.2083" y2="255.2083"/><line style="stroke:#DC322F;stroke-width:2.0833333333333335;" x1="338.5417" x2="537.6444" y1="263.5417" y2="263.5417"/><ellipse cx="348.9583" cy="286.2467" fill="#84BE84" rx="3.125" ry="3.125" style="stroke:#038048;stroke-width:1.0416666666666667;"/><text fill="#000000" font-family="Dejavu Serif" font-size="14.5833" lengthAdjust="spacing" textLength="154.0721" x="358.3333" y="281.2449">applyDiscount(price:</text><text fill="#000000" font-family="Dejavu Serif" font-size="14.5833" lengthAdjust="spacing" textLength="60.7402" x="358.3333" y="298.2208">double):</text><text fill="#000000" font-family="Dejavu Serif" font-size="14.5833" lengthAdjust="spacing" textLength="4.6356" x="419.0735" y="298.2208">&#160;</text><text fill="#000000" font-family="Dejavu Serif" font-size="14.5833" lengthAdjust="spacing" textLength="50.1373" x="423.7091" y="298.2208">double</text><ellipse cx="348.9583" cy="311.7106" fill="#84BE84" rx="3.125" ry="3.125" style="stroke:#038048;stroke-width:1.0416666666666667;"/><text fill="#000000" font-family="Dejavu Serif" font-size="14.5833" lengthAdjust="spacing" textLength="125.7599" x="358.3333" y="315.1967">getDescription():</text><text fill="#000000" font-family="Dejavu Serif" font-size="14.5833" lengthAdjust="spacing" textLength="4.6356" x="484.0932" y="315.1967">&#160;</text><text fill="#000000" font-family="Dejavu Serif" font-size="14.5833" lengthAdjust="spacing" textLength="43.7073" x="488.7288" y="315.1967">string</text></g><!--class PricingCalculator--><g id="elem_PricingCalculator"><rect codeLine="7" fill="#FFE0E0" height="151.8555" id="PricingCalculator" rx="7.8125" ry="7.8125" style="stroke:#DC322F;stroke-width:2.0833333333333335;" width="323.3785" x="276.5625" y="7.2917"/><ellipse cx="368.7978" cy="23.9583" fill="#ADD1B2" rx="11.4583" ry="11.4583" style="stroke:#181818;stroke-width:1.0416666666666667;"/><path d="M371.8903,29.834 Q371.288,30.1432 370.6207,30.2897 Q369.9534,30.4525 369.221,30.4525 Q366.6168,30.4525 365.2334,28.7435 Q363.8662,27.0182 363.8662,23.763 Q363.8662,20.5078 365.2334,18.7826 Q366.6168,17.0573 369.221,17.0573 Q369.9534,17.0573 370.6207,17.2201 Q371.3043,17.3828 371.8903,17.6921 L371.8903,20.5241 Q371.2392,19.9219 370.6207,19.6452 Q370.0022,19.3522 369.3512,19.3522 Q367.9515,19.3522 367.2353,20.4753 Q366.5192,21.582 366.5192,23.763 Q366.5192,25.944 367.2353,27.0671 Q367.9515,28.1738 369.3512,28.1738 Q370.0022,28.1738 370.6207,27.8971 Q371.2392,27.6042 371.8903,27.002 L371.8903,29.834 Z " fill="#000000"/><text fill="#000000" font-family="Dejavu Serif" font-size="14.5833" lengthAdjust="spacing" textLength="130.0537" x="390.152" y="29.007">PricingCalculator</text><line style="stroke:#DC322F;stroke-width:2.0833333333333335;" x1="277.6042" x2="598.8993" y1="40.625" y2="40.625"/><rect fill="none" height="6.25" style="stroke:#C82930;stroke-width:1.0416666666666667;" width="6.25" x="284.8958" y="60.2051"/><text fill="#000000" font-family="Dejavu Serif" font-size="14.5833" lengthAdjust="spacing" textLength="131.5704" x="297.3958" y="58.3282">discountStrategy:</text><text fill="#000000" font-family="Dejavu Serif" font-size="14.5833" lengthAdjust="spacing" textLength="129.0141" x="297.3958" y="75.3042">DiscountStrategy</text><line style="stroke:#DC322F;stroke-width:2.0833333333333335;" x1="277.6042" x2="598.8993" y1="82.9102" y2="82.9102"/><ellipse cx="288.0208" cy="105.6152" fill="#84BE84" rx="3.125" ry="3.125" style="stroke:#038048;stroke-width:1.0416666666666667;"/><text fill="#000000" font-family="Dejavu Serif" font-size="14.5833" lengthAdjust="spacing" textLength="296.2952" x="297.3958" y="100.6134">setDiscountStrategy(DiscountStrategy):</text><text fill="#000000" font-family="Dejavu Serif" font-size="14.5833" lengthAdjust="spacing" textLength="31.0181" x="297.3958" y="117.5893">void</text><ellipse cx="288.0208" cy="139.5671" fill="#84BE84" rx="3.125" ry="3.125" style="stroke:#038048;stroke-width:1.0416666666666667;"/><text fill="#000000" font-family="Dejavu Serif" font-size="14.5833" lengthAdjust="spacing" textLength="187.8957" x="297.3958" y="134.5652">calculatePrice(basePrice,</text><text fill="#000000" font-family="Dejavu Serif" font-size="14.5833" lengthAdjust="spacing" textLength="72.0408" x="297.3958" y="151.5411">quantity):</text><text fill="#000000" font-family="Dejavu Serif" font-size="14.5833" lengthAdjust="spacing" textLength="4.6356" x="369.4366" y="151.5411">&#160;</text><text fill="#000000" font-family="Dejavu Serif" font-size="14.5833" lengthAdjust="spacing" textLength="50.1373" x="374.0723" y="151.5411">double</text></g><!--class NoDiscount--><g id="elem_NoDiscount"><rect codeLine="13" fill="#FFE0E0" height="83.9518" id="NoDiscount" rx="7.8125" ry="7.8125" style="stroke:#DC322F;stroke-width:2.0833333333333335;" width="186.8449" x="7.2917" y="393.75"/><ellipse cx="52.859" cy="410.4167" fill="#ADD1B2" rx="11.4583" ry="11.4583" style="stroke:#181818;stroke-width:1.0416666666666667;"/><path d="M55.9514,416.2923 Q55.3492,416.6016 54.6819,416.748 Q54.0146,416.9108 53.2822,416.9108 Q50.678,416.9108 49.2945,415.2018 Q47.9273,413.4766 47.9273,410.2214 Q47.9273,406.9661 49.2945,405.2409 Q50.678,403.5156 53.2822,403.5156 Q54.0146,403.5156 54.6819,403.6784 Q55.3655,403.8411 55.9514,404.1504 L55.9514,406.9824 Q55.3004,406.3802 54.6819,406.1035 Q54.0634,405.8105 53.4124,405.8105 Q52.0126,405.8105 51.2965,406.9336 Q50.5803,408.0404 50.5803,410.2214 Q50.5803,412.4023 51.2965,413.5254 Q52.0126,414.6322 53.4124,414.6322 Q54.0634,414.6322 54.6819,414.3555 Q55.3004,414.0625 55.9514,413.4603 L55.9514,416.2923 Z " fill="#000000"/><text fill="#000000" font-family="Dejavu Serif" font-size="14.5833" lengthAdjust="spacing" textLength="86.9731" x="74.0962" y="415.4653">NoDiscount</text><line style="stroke:#DC322F;stroke-width:2.0833333333333335;" x1="8.3333" x2="193.0949" y1="427.0833" y2="427.0833"/><line style="stroke:#DC322F;stroke-width:2.0833333333333335;" x1="8.3333" x2="193.0949" y1="435.4167" y2="435.4167"/><ellipse cx="18.75" cy="458.1217" fill="#84BE84" rx="3.125" ry="3.125" style="stroke:#038048;stroke-width:1.0416666666666667;"/><text fill="#000000" font-family="Dejavu Serif" font-size="14.5833" lengthAdjust="spacing" textLength="159.7616" x="28.125" y="453.1199">applyDiscount(price):</text><text fill="#000000" font-family="Dejavu Serif" font-size="14.5833" lengthAdjust="spacing" textLength="50.1373" x="28.125" y="470.0958">double</text></g><!--class PercentageDiscount--><g id="elem_PercentageDiscount"><rect codeLine="17" fill="#FFE0E0" height="100.9277" id="PercentageDiscount" rx="7.8125" ry="7.8125" style="stroke:#DC322F;stroke-width:2.0833333333333335;" width="186.8449" x="230.2083" y="385.4167"/><ellipse cx="247.6127" cy="402.0833" fill="#ADD1B2" rx="11.4583" ry="11.4583" style="stroke:#181818;stroke-width:1.0416666666666667;"/><path d="M250.7051,407.959 Q250.1029,408.2682 249.4356,408.4147 Q248.7683,408.5775 248.0358,408.5775 Q245.4317,408.5775 244.0482,406.8685 Q242.681,405.1432 242.681,401.888 Q242.681,398.6328 244.0482,396.9076 Q245.4317,395.1823 248.0358,395.1823 Q248.7683,395.1823 249.4356,395.3451 Q250.1192,395.5078 250.7051,395.8171 L250.7051,398.6491 Q250.0541,398.0469 249.4356,397.7702 Q248.8171,397.4772 248.166,397.4772 Q246.7663,397.4772 246.0502,398.6003 Q245.334,399.707 245.334,401.888 Q245.334,404.069 246.0502,405.1921 Q246.7663,406.2988 248.166,406.2988 Q248.8171,406.2988 249.4356,406.0221 Q250.0541,405.7292 250.7051,405.127 L250.7051,407.959 Z " fill="#000000"/><text fill="#000000" font-family="Dejavu Serif" font-size="14.5833" lengthAdjust="spacing" textLength="149.5575" x="262.5914" y="407.132">PercentageDiscount</text><line style="stroke:#DC322F;stroke-width:2.0833333333333335;" x1="231.25" x2="416.0116" y1="418.75" y2="418.75"/><rect fill="none" height="6.25" style="stroke:#C82930;stroke-width:1.0416666666666667;" width="6.25" x="238.5417" y="429.8421"/><text fill="#000000" font-family="Dejavu Serif" font-size="14.5833" lengthAdjust="spacing" textLength="88.561" x="251.0417" y="436.4532">percentage:</text><text fill="#000000" font-family="Dejavu Serif" font-size="14.5833" lengthAdjust="spacing" textLength="4.6356" x="339.6027" y="436.4532">&#160;</text><text fill="#000000" font-family="Dejavu Serif" font-size="14.5833" lengthAdjust="spacing" textLength="50.1373" x="344.2383" y="436.4532">double</text><line style="stroke:#DC322F;stroke-width:2.0833333333333335;" x1="231.25" x2="416.0116" y1="444.0592" y2="444.0592"/><ellipse cx="241.6667" cy="466.7643" fill="#84BE84" rx="3.125" ry="3.125" style="stroke:#038048;stroke-width:1.0416666666666667;"/><text fill="#000000" font-family="Dejavu Serif" font-size="14.5833" lengthAdjust="spacing" textLength="159.7616" x="251.0417" y="461.7625">applyDiscount(price):</text><text fill="#000000" font-family="Dejavu Serif" font-size="14.5833" lengthAdjust="spacing" textLength="50.1373" x="251.0417" y="478.7384">double</text></g><!--class FixedAmountDiscount--><g id="elem_FixedAmountDiscount"><rect codeLine="22" fill="#FFE0E0" height="100.9277" id="FixedAmountDiscount" rx="7.8125" ry="7.8125" style="stroke:#DC322F;stroke-width:2.0833333333333335;" width="197.524" x="453.6458" y="385.4167"/><ellipse cx="469.2708" cy="402.0833" fill="#ADD1B2" rx="11.4583" ry="11.4583" style="stroke:#181818;stroke-width:1.0416666666666667;"/><path d="M472.3633,407.959 Q471.7611,408.2682 471.0938,408.4147 Q470.4264,408.5775 469.694,408.5775 Q467.0898,408.5775 465.7064,406.8685 Q464.3392,405.1432 464.3392,401.888 Q464.3392,398.6328 465.7064,396.9076 Q467.0898,395.1823 469.694,395.1823 Q470.4264,395.1823 471.0938,395.3451 Q471.7773,395.5078 472.3633,395.8171 L472.3633,398.6491 Q471.7122,398.0469 471.0938,397.7702 Q470.4753,397.4772 469.8242,397.4772 Q468.4245,397.4772 467.7083,398.6003 Q466.9922,399.707 466.9922,401.888 Q466.9922,404.069 467.7083,405.1921 Q468.4245,406.2988 469.8242,406.2988 Q470.4753,406.2988 471.0938,406.0221 Q471.7122,405.7292 472.3633,405.127 L472.3633,407.959 Z " fill="#000000"/><text fill="#000000" font-family="Dejavu Serif" font-size="14.5833" lengthAdjust="spacing" textLength="164.1907" x="483.8542" y="407.132">FixedAmountDiscount</text><line style="stroke:#DC322F;stroke-width:2.0833333333333335;" x1="454.6875" x2="650.1282" y1="418.75" y2="418.75"/><rect fill="none" height="6.25" style="stroke:#C82930;stroke-width:1.0416666666666667;" width="6.25" x="461.9792" y="429.8421"/><text fill="#000000" font-family="Dejavu Serif" font-size="14.5833" lengthAdjust="spacing" textLength="60.8612" x="474.4792" y="436.4532">amount:</text><text fill="#000000" font-family="Dejavu Serif" font-size="14.5833" lengthAdjust="spacing" textLength="4.6356" x="535.3404" y="436.4532">&#160;</text><text fill="#000000" font-family="Dejavu Serif" font-size="14.5833" lengthAdjust="spacing" textLength="50.1373" x="539.976" y="436.4532">double</text><line style="stroke:#DC322F;stroke-width:2.0833333333333335;" x1="454.6875" x2="650.1282" y1="444.0592" y2="444.0592"/><ellipse cx="465.1042" cy="466.7643" fill="#84BE84" rx="3.125" ry="3.125" style="stroke:#038048;stroke-width:1.0416666666666667;"/><text fill="#000000" font-family="Dejavu Serif" font-size="14.5833" lengthAdjust="spacing" textLength="159.7616" x="474.4792" y="461.7625">applyDiscount(price):</text><text fill="#000000" font-family="Dejavu Serif" font-size="14.5833" lengthAdjust="spacing" textLength="50.1373" x="474.4792" y="478.7384">double</text></g><!--class BuyOneGetOneFree--><g id="elem_BuyOneGetOneFree"><rect codeLine="27" fill="#FFE0E0" height="83.9518" id="BuyOneGetOneFree" rx="7.8125" ry="7.8125" style="stroke:#DC322F;stroke-width:2.0833333333333335;" width="186.8449" x="688.5417" y="393.75"/><ellipse cx="706.2889" cy="410.4167" fill="#ADD1B2" rx="11.4583" ry="11.4583" style="stroke:#181818;stroke-width:1.0416666666666667;"/><path d="M709.3813,416.2923 Q708.7791,416.6016 708.1118,416.748 Q707.4445,416.9108 706.712,416.9108 Q704.1079,416.9108 702.7244,415.2018 Q701.3572,413.4766 701.3572,410.2214 Q701.3572,406.9661 702.7244,405.2409 Q704.1079,403.5156 706.712,403.5156 Q707.4445,403.5156 708.1118,403.6784 Q708.7954,403.8411 709.3813,404.1504 L709.3813,406.9824 Q708.7303,406.3802 708.1118,406.1035 Q707.4933,405.8105 706.8422,405.8105 Q705.4425,405.8105 704.7264,406.9336 Q704.0102,408.0404 704.0102,410.2214 Q704.0102,412.4023 704.7264,413.5254 Q705.4425,414.6322 706.8422,414.6322 Q707.4933,414.6322 708.1118,414.3555 Q708.7303,414.0625 709.3813,413.4603 L709.3813,416.2923 Z " fill="#000000"/><text fill="#000000" font-family="Dejavu Serif" font-size="14.5833" lengthAdjust="spacing" textLength="148.7956" x="721.3438" y="415.4653">BuyOneGetOneFree</text><line style="stroke:#DC322F;stroke-width:2.0833333333333335;" x1="689.5833" x2="874.3449" y1="427.0833" y2="427.0833"/><line style="stroke:#DC322F;stroke-width:2.0833333333333335;" x1="689.5833" x2="874.3449" y1="435.4167" y2="435.4167"/><ellipse cx="700" cy="458.1217" fill="#84BE84" rx="3.125" ry="3.125" style="stroke:#038048;stroke-width:1.0416666666666667;"/><text fill="#000000" font-family="Dejavu Serif" font-size="14.5833" lengthAdjust="spacing" textLength="159.7616" x="709.375" y="453.1199">applyDiscount(price):</text><text fill="#000000" font-family="Dejavu Serif" font-size="14.5833" lengthAdjust="spacing" textLength="50.1373" x="709.375" y="470.0958">double</text></g><!--link PricingCalculator to DiscountStrategy--><g id="link_PricingCalculator_DiscountStrategy"><path codeLine="31" d="M438.0208,172.1146 C438.0208,193.0208 438.0208,196.4479 438.0208,215.4792 " fill="none" id="PricingCalculator-DiscountStrategy" style="stroke:#657B83;stroke-width:2.0833333333333335;"/><polygon fill="none" points="438.0208,159.6146,433.8542,165.8646,438.0208,172.1146,442.1875,165.8646,438.0208,159.6146" style="stroke:#657B83;stroke-width:2.0833333333333335;"/><polygon fill="#657B83" points="438.0208,221.7292,442.1875,212.3542,438.0208,216.5208,433.8542,212.3542,438.0208,221.7292" style="stroke:#657B83;stroke-width:2.0833333333333335;"/></g><!--reverse link DiscountStrategy to NoDiscount--><g id="link_DiscountStrategy_NoDiscount"><path codeLine="32" d="M320.3039,329.7568 C272.3248,352.7048 232.4688,371.7708 186.5521,393.7396 " fill="none" id="DiscountStrategy-backto-NoDiscount" style="stroke:#657B83;stroke-width:2.0833333333333335;stroke-dasharray:7.0,7.0;"/><polygon fill="none" points="337.2188,321.6667,317.6072,324.1186,323.0006,335.3951,337.2188,321.6667" style="stroke:#657B83;stroke-width:2.0833333333333335;"/></g><!--reverse link DiscountStrategy to PercentageDiscount--><g id="link_DiscountStrategy_PercentageDiscount"><path codeLine="33" d="M391.856,338.4881 C377.8455,358.2276 372.625,365.5833 358.6354,385.3021 " fill="none" id="DiscountStrategy-backto-PercentageDiscount" style="stroke:#657B83;stroke-width:2.0833333333333335;stroke-dasharray:7.0,7.0;"/><polygon fill="none" points="402.7083,323.1979,386.7592,334.8706,396.9527,342.1055,402.7083,323.1979" style="stroke:#657B83;stroke-width:2.0833333333333335;"/></g><!--reverse link DiscountStrategy to FixedAmountDiscount--><g id="link_DiscountStrategy_FixedAmountDiscount"><path codeLine="34" d="M484.1857,338.4881 C498.1961,358.2276 503.4167,365.5833 517.4063,385.3021 " fill="none" id="DiscountStrategy-backto-FixedAmountDiscount" style="stroke:#657B83;stroke-width:2.0833333333333335;stroke-dasharray:7.0,7.0;"/><polygon fill="none" points="473.3333,323.1979,479.089,342.1055,489.2824,334.8706,473.3333,323.1979" style="stroke:#657B83;stroke-width:2.0833333333333335;"/></g><!--reverse link DiscountStrategy to BuyOneGetOneFree--><g id="link_DiscountStrategy_BuyOneGetOneFree"><path codeLine="35" d="M555.8042,328.7636 C605.0334,351.8886 646.7292,371.4688 694.0833,393.7083 " fill="none" id="DiscountStrategy-backto-BuyOneGetOneFree" style="stroke:#657B83;stroke-width:2.0833333333333335;stroke-dasharray:7.0,7.0;"/><polygon fill="none" points="538.8333,320.7917,553.1469,334.4206,558.4615,323.1066,538.8333,320.7917" style="stroke:#657B83;stroke-width:2.0833333333333335;"/></g><!--SRC=[dL91JiCm4Bpd5UOM1Ea3AeG4LEK6bNZ1rXc29TSszXeH0N_79Kq1kq4LFbZMxkpCxgnF-0aRY12DZe4hPHZ-aIJ4GWLfe-47ziJeUl5MYNJEo3dTZydQUIKn5wsDQutJyJ4WE_02GNhbM5bJfsnWhqnNVLILr1I2MANg5BWXBQCcjdudqhIP-BnePv08II9Br7aWwRvOrGu5SYU5hJJgDONXTIwU8nbMt7yFiM_ppewSVvXme6u5Bs6OEcJrZTjdVbjs7EzIlQAzscmnEJ5zHVz3UXtxUuDRSBgN7ZXsr7A7jcakotqL_-dYVJRxOUq4eFHm0dZ0b0baFkad]--></g></svg>